<?xml version="1.0" encoding="UTF-8"?>
<!DOCTYPE svg PUBLIC "-//W3C//DTD SVG 1.1//EN" "http://www.w3.org/Graphics/SVG/1.1/DTD/svg11.dtd">
<!-- Creator: CorelDRAW 2020 (64-Bit) -->
<svg xmlns="http://www.w3.org/2000/svg" xml:space="preserve" width="264.583mm" height="176.389mm" version="1.1" style="shape-rendering:geometricPrecision; text-rendering:geometricPrecision; image-rendering:optimizeQuality; fill-rule:evenodd; clip-rule:evenodd"
viewBox="0 0 26458.32 17638.88"
 xmlns:xlink="http://www.w3.org/1999/xlink"
 xmlns:xodm="http://www.corel.com/coreldraw/odm/2003">
 <defs>
  <style type="text/css">
   <![CDATA[
    .str0 {stroke:#315250;stroke-width:7.62;stroke-miterlimit:10}
    .fil1 {fill:#315250;fill-rule:nonzero}
    .fil0 {fill:#EBF0ED;fill-rule:nonzero}
   ]]>
  </style>
 </defs>
 <g id="Capa_x0020_1">
  <metadata id="CorelCorpID_0Corel-Layer"/>
  <g id="_2162327432432">
   <g>
    <path class="fil0" d="M12715.6 10594.35c-36.21,-26.92 -73.18,-52.74 -112.65,-74.61 -183.49,-101.64 -322.17,-278.98 -392.02,-477.63 -77.06,-219.25 -74.62,-461.82 -17,-686.93 20.63,-80.64 48.37,-160.02 90.1,-232.02 47.17,-81.35 111.17,-151.62 162.67,-230.29 78.13,-119.38 126.06,-255.52 172.88,-390.21 56.54,-162.6 123.36,-340.01 323.92,-377.97 38.2,-7.23 77.75,-7.26 116.03,-0.49 208.88,37.04 333.69,220.63 365.65,412.15 28.89,173.14 -9.59,360.4 65.05,519.29 37.47,79.76 100.3,144.39 163.09,206.2 125.98,124.1 257.42,244.86 357.37,390.73 99.94,145.88 166.97,322.48 145.87,498.02 -18.52,154.02 -102.59,292.95 -202.18,411.87 -60.64,72.39 -130.6,141.32 -218.86,174.87 -96.41,36.62 -203.41,27.09 -306,16.19 -266.28,-28.33 -511.25,-8.32 -713.92,-159.17z"/>
    <path class="fil0" d="M14328.33 8924.65c0,124.39 -100.83,225.22 -225.18,225.22 -124.39,0 -225.21,-100.83 -225.21,-225.22 0,-124.35 100.82,-225.18 225.21,-225.18 124.35,0 225.18,100.83 225.18,225.18z"/>
   </g>
   <g>
    <path class="fil1 str0" d="M13268.09 7935.89c366.96,415.75 720.72,840.74 1048.42,1288.41 7.72,10.51 24.48,16.19 34.61,4.45 21.55,-24.98 43.11,-49.92 64.66,-74.93 5.89,-6.78 9.42,-18.52 3.42,-26.71 -197.24,-269.31 -402.62,-532.31 -615.74,-789.27 -106.08,-127.88 -213.92,-254.35 -322.86,-379.83 -45.05,-51.9 -146.26,-218.59 -212.33,-233.72 -61.25,-14.04 -140.2,109.19 -176.57,144.85 -125.98,123.51 -248.71,250.33 -369.27,379.1 -237.25,253.4 -465.85,514.66 -695.76,774.7 -8.08,9.13 -8.57,22.04 0,31.18 27,28.72 49.62,65.72 92.6,59.44 54.41,-7.9 119.47,-119.38 151.22,-155.36 60.46,-68.61 120.95,-137.26 181.72,-205.6 118.93,-133.84 238.96,-266.77 361.95,-396.91 56,-59.26 378.33,-454.38 458.37,-416.38 25.51,12.13 47.91,-25.9 22.26,-38.07 -65.12,-30.9 -87.24,-2.4 -138.36,46.22 -106.25,101.03 -209.44,205.53 -310.97,311.32 -208.24,217.1 -407.25,442.67 -606.17,668.24 -7.21,8.18 -176.98,192.54 -170,108.09 1.38,-16.58 107.53,-115.64 117.25,-126.65 114.74,-129.86 229.53,-259.68 345.77,-388.16 102.54,-113.38 206.11,-225.85 311.6,-336.52 102.48,-107.49 222.25,-279.15 351.01,-353.34 90.84,-52.32 113.17,-3.03 174.42,66.89 53.72,61.42 107.24,122.98 160.44,184.82 95.5,111.05 189.97,222.95 283.1,335.98 123.79,150.29 245.22,302.55 363.54,457.17 41.28,53.94 80.29,109.92 122.8,162.81 38.03,47.27 106.68,85.44 43.5,133.1 -18.03,31.33 -27.34,23.42 -28.01,-23.64 -26.03,-35.42 -52.21,-70.69 -78.53,-105.87 -38.13,-50.87 -76.52,-101.53 -115.25,-151.9 -86.43,-112.43 -174.52,-223.59 -264.2,-333.48 -180.76,-221.48 -368.3,-437.31 -557.49,-651.62 -18.8,-21.34 -49.88,9.98 -31.15,31.19z"/>
    <path class="fil1" d="M13514.68 10785.41c89.43,-3.98 247.97,28.51 304.55,-59.83 33.24,-51.86 39.97,-162.7 53.38,-222.07 22.65,-100.44 43.96,-201.15 64.49,-302.05 82.86,-407.39 151.97,-817.42 222.42,-1227.07 4.77,-27.76 -37.74,-39.68 -42.54,-11.71 -56.2,326.81 -111.59,653.77 -173.75,979.56 -31.22,163.76 -64.02,327.24 -99.9,490.04 -13.94,63.29 -18.49,180.73 -54.05,234.49 -61.95,93.7 -180.02,70.35 -274.6,74.55 -28.26,1.23 -28.43,45.33 0,44.09l0 0z"/>
    <path class="fil1" d="M12347.2 8825.7c50.27,459.95 94.57,920.68 155.83,1379.36 11.78,88.23 24.2,176.42 37.41,264.48 11.41,76.16 7.21,246.16 56.82,307.2 67.1,82.51 226.24,39.19 314.59,35.27 28.3,-1.23 28.44,-45.33 0,-44.09 -90.08,3.98 -223.52,41.13 -287.18,-48.48 -36.18,-50.9 -32.3,-198.89 -41.7,-261.62 -28.68,-191.1 -53.52,-382.72 -76.29,-574.6 -41.8,-352.14 -76.87,-705.03 -115.38,-1057.52 -3.05,-27.91 -47.19,-28.22 -44.1,0l0 0z"/>
    <path class="fil1" d="M12996.59 10627.83c-15.84,-166.58 -40.67,-333.27 -39.9,-500.95 0.71,-152.54 2.89,-377.36 127.88,-490.18 105.7,-95.39 253.3,-69.11 340.89,38.77 62.62,77.15 70.59,223.34 76.49,315.98 13.3,208.81 -22.37,418.47 -55.04,623.89 -4.41,27.76 38.1,39.72 42.55,11.71 38.56,-242.5 212.9,-1165.75 -279.51,-1095.94 -439,62.23 -283.81,820 -257.46,1096.72 2.69,28.01 46.78,28.26 44.1,0l0 0z"/>
    <path class="fil1" d="M13201.77 9554.57c-1.03,356.52 -2.01,713.04 -3,1069.52 -0.11,28.4 43.99,28.43 44.1,0 0.98,-356.48 1.97,-713 2.99,-1069.52 0.07,-28.36 -44.02,-28.4 -44.09,0l0 0z"/>
    <path class="fil1" d="M12895.2 10645.4c4.09,67.98 7.48,138.43 41.35,198.93 3.81,6.77 11.39,10.9 19.05,10.93 144.99,0.6 289.95,2.09 434.94,0.85 27.41,-0.21 78.7,9.28 102.76,-8.89 48.51,-36.51 36.9,-159.24 34.5,-206.23 -0.63,-12.28 -9.63,-21.49 -22.04,-22.05 -196.08,-8.65 -392.33,6.52 -588.51,4.41 -28.36,-0.32 -28.4,43.78 0,44.09 160.16,1.73 320.04,-8.14 480.17,-7.3 36.05,0.21 65.72,-9.17 88.33,21.03 11.29,15.1 0.92,93.1 -12.06,110.21 -19.93,26.24 -30.94,20.1 -74.05,20.56 -92.32,0.92 -184.61,0.39 -276.9,0 -37.04,-0.1 -83.15,6.32 -119.69,-0.53 -8.54,-1.62 -30.2,4.91 -36.8,-0.21 -29.6,-23.03 -24.55,-125.83 -26.95,-165.8 -1.69,-28.23 -45.79,-28.4 -44.1,0l0 0z"/>
    <path class="fil1" d="M13169.1 8494.47c-171.38,47.17 -282.01,211.57 -256.82,388.77 23.95,168.62 163.97,299.26 338.59,280.81 424.99,-44.95 357.3,-741.54 -81.77,-669.58 -27.94,4.56 -16.09,47.07 11.71,42.51 403.44,-66.11 417.37,595.56 29.53,584.98 -162.98,-4.48 -264.48,-154.8 -257.14,-307.9 6.35,-132.4 101.49,-242.36 227.61,-277.08 27.34,-7.51 15.74,-50.09 -11.71,-42.51z"/>
    <path class="fil1" d="M13196.19 8516.21c3.28,209.23 6.53,418.46 9.77,627.69 0.46,28.33 44.56,28.44 44.1,0 -3.24,-209.23 -6.49,-418.46 -9.77,-627.69 -0.42,-28.37 -44.52,-28.44 -44.1,0l0 0z"/>
    <path class="fil1" d="M12934.5 8882c191.84,-15.8 386.22,-14.32 578.63,-19.61 28.33,-0.78 28.43,-44.88 0,-44.1 -192.41,5.29 -386.79,3.81 -578.63,19.61 -28.08,2.3 -28.33,46.43 0,44.1l0 0z"/>
    <path class="fil1" d="M12416.21 9349.18c-78.86,35.11 -147.21,165.85 -197.46,232.63 -45.76,60.82 -144.73,151.87 -165.08,227.71 -15.44,57.51 14.17,157.06 19.78,214.21 14.89,151.38 29.64,302.76 43.96,454.17 8.06,85.4 -8.88,234.56 27.62,312.17 21.16,45.05 9.7,36.16 69.92,44.2 222.24,29.74 472.87,-11.89 696.9,-22.26 28.3,-1.3 28.44,-45.4 0,-44.09 -200.75,9.27 -401.73,18.66 -602.7,21.76 -28.12,0.43 -99.15,13.76 -124.17,-0.53 12.1,6.92 7.54,5.22 1.61,-33.4 -15.7,-102.31 -18.49,-208.46 -28.28,-311.51 -11.89,-125.16 -24.05,-250.29 -36.31,-375.39 -6.64,-67.52 -40.98,-180.48 -24.39,-247.05 6.09,-24.45 88.51,-122.62 118.11,-162.56 55.29,-74.65 134.02,-232.48 222.75,-271.99 25.86,-11.5 3.46,-49.53 -22.26,-38.07l0 0z"/>
    <path class="fil1" d="M13737.71 10777.37c222.74,-8.01 445.52,-16.02 668.3,-23.99 12.03,-0.42 21.91,-9.77 22.05,-22.05 2.33,-210.11 4.65,-420.19 7.02,-630.27 0.07,-7.06 -4.09,-16.05 -10.94,-19.01 -146.86,-64.85 -293.76,-129.65 -440.62,-194.49 -25.72,-11.33 -48.19,26.67 -22.26,38.1 63.47,27.97 126.9,55.98 190.36,84 68.9,30.4 175.68,55.21 233.96,103.25 26.43,21.73 -5.68,-27.69 5.15,8.29 8.82,29.21 -0.81,74.09 -1.16,104.81 -1.2,107.18 -2.36,214.39 -3.56,321.56 -0.46,39.65 -3.95,80.43 -1.34,119.98 1.12,16.72 -9.99,70.73 9.24,51.61 20.85,-20.71 -31.47,-7.05 -47.41,-7.76 -37.54,-1.66 -76.17,2.75 -113.78,4.09 -164.99,5.93 -330.02,11.86 -495.01,17.78 -28.33,1.03 -28.47,45.12 0,44.1l0 0z"/>
    <path class="fil1" d="M13299.38 7232.98c1.8,196.95 5.43,393.56 20.74,589.98 2.19,28.12 46.32,28.37 44.1,0 -15.31,-196.42 -18.94,-393.03 -20.74,-589.98 -0.25,-28.37 -44.35,-28.44 -44.1,0l0 0z"/>
    <path class="fil1" d="M13205.58 7078.81c-0.78,-48.29 -2.05,-96.55 -4.84,-144.74 -1.02,-17.39 -3.95,-36.2 -3.56,-53.55 0.95,-41.03 11.71,-45.86 49.07,-48.79 39.02,-3.04 42.19,0.07 47.73,40.11 2.51,18.1 1.1,37.64 1.52,55.81 1.2,50.02 1.83,100.05 2.4,150.1 0.32,28.37 44.41,28.44 44.1,0 -0.89,-78.17 0.67,-157.33 -4.87,-235.33 -4.2,-59.16 -39.13,-58.81 -90.88,-54.79 -45.54,3.56 -89.85,3.07 -95.07,58.88 -3.14,33.55 4.65,71.15 6.38,104.77 2.19,42.51 3.21,84.99 3.92,127.53 0.46,28.33 44.56,28.44 44.1,0l0 0z"/>
    <path class="fil1" d="M13216.94 7799.86c-13.37,-185.5 -10.45,-371.2 -10.2,-557.01 0.04,-28.39 -44.06,-28.43 -44.1,0 -0.24,185.81 -3.17,371.51 10.2,557.01 2.04,28.11 46.14,28.32 44.1,0l0 0z"/>
    <path class="fil1" d="M12936.94 7267.44c160.72,-8.71 321.45,-17.42 482.17,-26.1 102.34,-5.58 237.21,29.42 240.24,-100.16 1.98,-82.79 -24.55,-92 -107.1,-96.2 -203.27,-10.33 -408.23,26.71 -612.6,22.65 -83.99,-1.66 -91.51,0.78 -84.63,89.53 5.15,66.64 8.29,110.18 81.92,110.28 28.36,0.04 28.39,-44.06 0,-44.09 -51.86,-0.07 -41.14,-78.5 -18.81,-98.46 35.49,-31.72 128.84,-8.61 174.17,-9.21 115.01,-1.52 228.6,-19.72 343.32,-25.44 27.41,-1.37 274.15,7.87 172.19,96.77 -10.72,9.35 -77.15,4.16 -90.34,4.87 -193.5,10.51 -387.04,20.95 -580.53,31.47 -28.23,1.51 -28.4,45.61 0,44.09z"/>
    <path class="fil1" d="M13112.9 10162.27c-7.79,11.04 -10.86,30.76 2.19,39.65 11.36,7.76 33.16,3.63 40,-8.29 6.57,-11.47 3.6,-31.86 -6.84,-40.29 -13.93,-11.29 -29.6,-0.25 -38.03,11.86 -6.49,9.34 8.82,18.2 15.24,8.92 8.68,-12.49 19.26,-1.13 13.37,8.71 -7.3,12.25 -17.07,-2.61 -10.69,-11.67 6.56,-9.28 -8.71,-18.1 -15.24,-8.89l0 0z"/>
    <path class="fil1" d="M13308.66 10144.45c-17.46,3.67 -27.73,13.76 -26.64,32.18 0.85,14.81 10.94,28.43 26.53,29.35 30.73,1.76 37.11,-51.51 10.27,-61.56 -10.66,-3.99 -15.24,13.05 -4.69,17.04 8.53,3.17 3.35,26.91 -6.04,26.81 -6.7,-3.95 -9.52,-9.46 -8.46,-16.58 2.75,-6.6 7.3,-10.02 13.72,-10.23 11.11,-2.33 6.39,-19.34 -4.69,-17.01l0 0z"/>
    <path class="fil1" d="M12468.79 9026.99c-13.08,-85.69 -23.45,-171.62 -31.18,-257.95 -0.99,-11.22 -18.64,-11.32 -17.63,0 7.88,87.91 18.49,175.4 31.78,262.64 1.7,11.15 18.71,6.43 17.03,-4.69l0 0z"/>
    <path class="fil1" d="M12495.02 8845.49c-3.28,-48.68 -6.58,-97.37 -9.88,-146.02 -0.75,-11.28 -18.41,-11.36 -17.64,0 3.3,48.65 6.6,97.34 9.88,146.02 0.79,11.29 18.43,11.36 17.64,0l0 0z"/>
    <path class="fil1" d="M12477.77 9101.89c11.35,0 11.37,-17.64 0,-17.64 -11.35,0 -11.37,17.64 0,17.64l0 0z"/>
    <path class="fil1" d="M14029.67 9228.78c17.99,-107.74 40.25,-213.08 74.29,-317 3.53,-10.8 -13.48,-15.46 -17,-4.7 -34.05,103.93 -56.31,209.27 -74.3,317.05 -1.87,11.11 15.14,15.87 17.01,4.65l0 0z"/>
    <path class="fil1" d="M14018.24 9048.3c19.72,-62.58 39.44,-125.13 59.19,-187.68 3.42,-10.86 -13.62,-15.48 -17,-4.69 -19.72,62.55 -39.48,125.13 -59.2,187.68 -3.42,10.86 13.62,15.49 17.01,4.69l0 0z"/>
    <path class="fil1" d="M14026.42 8876.46c7.41,-18.02 14.78,-36.02 22.19,-54.01 4.3,-10.48 -12.77,-15.06 -17,-4.69 -7.41,17.99 -14.79,36.02 -22.19,54.01 -4.31,10.48 12.77,15.06 17,4.69l0 0z"/>
    <path class="fil1" d="M13437.18 8111.99c-1.17,30.1 -3.85,60.05 -8.33,89.86 -1.66,11.11 15.31,15.87 17,4.65 4.7,-31.36 7.76,-62.79 8.96,-94.51 0.43,-11.36 -17.21,-11.36 -17.63,0l0 0z"/>
    <path class="fil1" d="M13477.82 8162.76c-2.51,38.13 -5.01,76.27 -7.52,114.4 -0.74,11.36 16.9,11.29 17.64,0 2.5,-38.13 5.01,-76.27 7.51,-114.4 0.74,-11.36 -16.89,-11.33 -17.63,0l0 0z"/>
    <path class="fil1" d="M13528.72 8210.35c-1.02,9.52 -2.04,19.05 -3.1,28.57 -1.2,11.29 16.44,11.19 17.64,0 1.05,-9.52 2.08,-19.05 3.1,-28.57 1.23,-11.26 -16.4,-11.19 -17.64,0l0 0z"/>
    <path class="fil1" d="M13108.95 8771.86c13.19,-16.51 26.42,-33.05 39.65,-49.56 7.02,-8.79 -5.36,-21.34 -12.49,-12.45 -13.19,16.51 -26.42,33.02 -39.65,49.53 -7.02,8.78 5.4,21.34 12.49,12.48l0 0z"/>
    <path class="fil1" d="M13054.2 8770.88c27.23,-36.97 55.88,-72.78 85.94,-107.5 7.4,-8.53 -5.01,-21.06 -12.46,-12.45 -31.04,35.81 -60.6,72.85 -88.72,111.02 -6.7,9.14 8.57,17.96 15.24,8.93l0 0z"/>
    <path class="fil1" d="M13322.73 8747.31c7.45,-9.49 14.89,-19.01 22.3,-28.54 6.95,-8.82 -5.47,-21.38 -12.45,-12.45 -7.45,9.49 -14.89,19.01 -22.33,28.5 -6.88,8.86 5.5,21.42 12.48,12.49l0 0z"/>
    <path class="fil1" d="M13336.42 9040.47c14.92,-24.77 32.28,-47.48 52.21,-68.4 7.83,-8.22 -4.62,-20.71 -12.49,-12.49 -20.95,22.01 -39.26,45.93 -54.96,71.96 -5.85,9.74 9.39,18.63 15.24,8.93l0 0z"/>
    <path class="fil1" d="M13327.21 8977.82c2.97,-8.75 7.34,-15.03 14.15,-21.24 8.4,-7.69 -4.09,-20.15 -12.45,-12.49 -9,8.22 -14.78,17.53 -18.7,29.03 -3.67,10.8 13.37,15.38 17,4.7l0 0z"/>
    <path class="fil1" d="M13134.99 8965.36c11.36,0 11.36,-17.64 0,-17.64 -11.36,0 -11.36,17.64 0,17.64l0 0z"/>
    <path class="fil1" d="M13032.82 10632.94c-1.41,-32.81 -2.79,-65.58 -4.16,-98.39 -0.5,-11.32 -18.13,-11.36 -17.64,0 1.38,32.81 2.75,65.58 4.16,98.39 0.46,11.33 18.1,11.36 17.64,0l0 0z"/>
    <path class="fil1" d="M13080.06 10630.58c-4.38,-17.07 -6.39,-34.01 -6.14,-51.61 0.18,-11.36 -17.46,-11.36 -17.64,0 -0.28,19.15 1.98,37.75 6.77,56.3 2.83,11.01 19.83,6.32 17.01,-4.69l0 0z"/>
    <path class="fil1" d="M13033.39 10473.49c11.36,0 11.39,-17.64 0,-17.64 -11.33,0 -11.36,17.64 0,17.64l0 0z"/>
    <path class="fil1" d="M13417.24 10625.89c11.68,-79.38 23.32,-158.75 34.96,-238.13 1.66,-11.11 -15.34,-15.91 -17,-4.69 -11.64,79.38 -23.32,158.75 -34.96,238.09 -1.62,11.11 15.38,15.91 17,4.73l0 0z"/>
    <path class="fil1" d="M13369.19 10626.59c-0.7,-29.31 2.09,-58.06 8.61,-86.71 2.54,-11.04 -14.46,-15.77 -16.97,-4.69 -6.88,30.16 -10.01,60.5 -9.27,91.4 0.24,11.33 17.88,11.36 17.63,0l0 0z"/>
    <path class="fil1" d="M12736.58 10715.46c-69.22,-27.48 -71.6,-129.22 -80.86,-191.53 -11.26,-75.49 -16.15,-151.41 -17.33,-227.68 -0.16,-11.32 -17.8,-11.36 -17.63,0 1.61,105.41 11.07,210.26 32.24,313.59 11.14,54.32 24.49,101.03 78.88,122.62 10.56,4.2 15.15,-12.87 4.7,-17l0 0z"/>
    <path class="fil1" d="M12738.03 10660.88c-28.88,-62.16 -41.39,-127.74 -38.17,-196.18 0.53,-11.36 -17.11,-11.32 -17.64,0 -3.38,71.62 10.43,140.13 40.58,205.11 4.77,10.26 19.98,1.34 15.23,-8.93l0 0z"/>
    <path class="fil1" d="M12693.65 10394.11c11.36,0 11.37,-17.64 0,-17.64 -11.32,0 -11.37,17.64 0,17.64l0 0z"/>
    <path class="fil1" d="M12543.21 10751.34c-16.86,-53.24 -22.68,-107.21 -17.69,-162.78 1.02,-11.29 -16.62,-11.21 -17.64,0 -5.15,57.22 0.98,112.75 18.31,167.47 3.44,10.76 20.47,6.14 17.02,-4.69l0 0z"/>
    <path class="fil1" d="M12499.74 10750.38c-1.49,-24.34 -4.87,-48.36 -10.2,-72.18 -2.48,-11.07 -19.5,-6.38 -17.01,4.7 5.01,22.29 8.19,44.69 9.57,67.48 0.68,11.29 18.34,11.36 17.64,0l0 0z"/>
    <path class="fil1" d="M12444.9 10725.86c-4.16,-19.08 -8.33,-38.13 -12.5,-57.18 -2.43,-11.08 -19.45,-6.39 -17.01,4.69 4.16,19.05 8.35,38.14 12.51,57.19 2.44,11.07 19.43,6.38 17,-4.7l0 0z"/>
    <path class="fil1" d="M12368.77 10734.58c-1.05,-10.58 -2.08,-21.17 -3.12,-31.75 -1.1,-11.22 -18.75,-11.33 -17.64,0 1.04,10.58 2.07,21.17 3.12,31.75 1.1,11.18 18.74,11.29 17.64,0l0 0z"/>
    <path class="fil1" d="M12349.94 10518.64c-1.08,-8.43 -2.15,-16.89 -3.22,-25.36 -1.41,-11.11 -19.07,-11.26 -17.64,0 1.08,8.47 2.14,16.93 3.22,25.36 1.4,11.12 19.05,11.26 17.64,0l0 0z"/>
    <path class="fil1" d="M12977.26 10731.37c1.2,17.46 5.26,33.48 12.42,49.46 4.62,10.33 19.82,1.37 15.24,-8.89 -5.86,-13.06 -9.07,-26.28 -10.02,-40.57 -0.78,-11.29 -18.42,-11.36 -17.64,0l0 0z"/>
    <path class="fil1" d="M13022.31 10758.25c3.14,4.27 6.24,8.57 9.35,12.84 6.59,9.1 21.9,0.32 15.24,-8.92 -3.11,-4.27 -6.25,-8.54 -9.35,-12.81 -6.6,-9.1 -21.91,-0.32 -15.24,8.89l0 0z"/>
    <path class="fil1" d="M13087.47 10769.36c3.17,3.18 6.35,6.35 9.56,9.53 8,8.01 20.49,-4.45 12.45,-12.49 -3.18,-3.18 -6.35,-6.35 -9.53,-9.53 -8.04,-8.04 -20.53,4.45 -12.48,12.49l0 0z"/>
    <path class="fil1" d="M14346 10680.71c-7.41,-72.6 -5.71,-144.46 5.61,-216.61 1.73,-11.11 -15.27,-15.87 -17,-4.69 -11.57,73.7 -13.83,147.04 -6.25,221.3 1.17,11.18 18.81,11.29 17.64,0l0 0z"/>
    <path class="fil1" d="M14292.59 10655.13c2.89,-33.83 4.16,-67.62 3.85,-101.56 -0.11,-11.36 -17.75,-11.4 -17.64,0 0.31,33.94 -0.96,67.73 -3.85,101.56 -0.99,11.29 16.65,11.22 17.64,0l0 0z"/>
    <path class="fil1" d="M14236.01 10667.87c0,-24.34 0,-48.69 0,-73.03 0,-11.36 -17.64,-11.36 -17.64,0 0,24.34 0,48.69 0,73.03 0,11.36 17.64,11.36 17.64,0l0 0z"/>
    <path class="fil1" d="M13870.07 10701.38c39.16,-91.83 34.47,-193.67 68.86,-286.88 3.95,-10.65 -13.09,-15.24 -17,-4.65 -33.9,91.72 -28.58,192.3 -67.1,282.64 -4.41,10.34 10.79,19.33 15.24,8.89l0 0z"/>
    <path class="fil1" d="M13927.5 10686c10.73,-27.73 18.17,-56.2 22.4,-85.65 1.63,-11.12 -15.38,-15.88 -17,-4.66 -4.23,29.42 -11.68,57.86 -22.4,85.62 -4.1,10.62 12.94,15.17 17,4.69l0 0z"/>
    <path class="fil1" d="M13966.84 10521.11c11.36,0 11.39,-17.64 0,-17.64 -11.36,0 -11.36,17.64 0,17.64l0 0z"/>
    <path class="fil1" d="M14329.74 10143.18c7.19,34.22 8.32,68.62 3.1,103.22 -1.66,11.12 15.35,15.88 17.04,4.7 5.68,-37.86 4.73,-75.15 -3.1,-112.61 -2.33,-11.11 -19.37,-6.42 -17.04,4.69l0 0z"/>
    <path class="fil1" d="M14269.66 10162.2c1.06,6.35 2.12,12.66 3.21,19.05 1.84,11.14 18.84,6.42 17,-4.7 -1.09,-6.35 -2.15,-12.7 -3.21,-19.05 -1.87,-11.18 -18.83,-6.42 -17,4.7l0 0z"/>
    <path class="fil1" d="M13867.25 10127.27c11.36,-64.06 25.68,-127.35 42.89,-190.08 3.04,-10.93 -14,-15.62 -17,-4.69 -17.25,62.73 -31.54,126.05 -42.9,190.08 -1.97,11.08 15.03,15.87 17.01,4.69l0 0z"/>
    <path class="fil1" d="M13839.13 10039.22c1.2,-14.61 4.34,-28.33 9.21,-42.12 3.81,-10.69 -13.23,-15.31 -17.01,-4.7 -5.39,15.35 -8.5,30.66 -9.84,46.82 -0.92,11.29 16.72,11.25 17.64,0l0 0z"/>
    <path class="fil1" d="M13886.76 9848.72c0,-3.18 0,-6.35 0,-9.53 0,-11.36 -17.64,-11.36 -17.64,0 0,3.18 0,6.35 0,9.53 0,11.36 17.64,11.36 17.64,0l0 0z"/>
    <path class="fil1" d="M12533.42 9664.64c-5.75,-72.04 -11.47,-144.04 -17.2,-216.08 -0.9,-11.22 -18.54,-11.32 -17.64,0 5.73,72.04 11.45,144.04 17.2,216.08 0.89,11.22 18.53,11.32 17.64,0l0 0z"/>
    <path class="fil1" d="M12496.83 9393.99c11.34,0 11.37,-17.64 0,-17.64 -11.36,0 -11.37,17.64 0,17.64l0 0z"/>
    <path class="fil1" d="M12572.39 9573.27c-1.08,-7.41 -2.16,-14.82 -3.24,-22.23 -1.61,-11.18 -18.62,-6.42 -17,4.7 1.07,7.4 2.16,14.81 3.22,22.22 1.64,11.18 18.64,6.42 17.02,-4.69l0 0z"/>
    <path class="fil1" d="M12315.68 9616.84c21.53,-23.32 34.64,-50.84 49.28,-78.64 19.25,-36.65 43.95,-66.04 78.97,-88.51 9.52,-6.14 0.68,-21.41 -8.91,-15.24 -28,17.99 -51.92,40.43 -70.21,68.37 -21.88,33.48 -34.03,71.72 -61.61,101.53 -7.69,8.32 4.77,20.81 12.48,12.49l0 0z"/>
    <path class="fil1" d="M12265.04 9667.04c11.34,0 11.37,-17.64 0,-17.64 -11.35,0 -11.37,17.64 0,17.64l0 0z"/>
    <path class="fil1" d="M12406.99 9545.58c4.81,-10.06 11.32,-16.34 22.01,-19.76 10.79,-3.42 6.17,-20.46 -4.69,-17 -14.75,4.72 -25.83,13.79 -32.54,27.87 -4.88,10.19 10.33,19.15 15.22,8.89l0 0z"/>
    <path class="fil1" d="M12990.95 7182.78c4.23,2.11 8.43,4.27 12.7,6.38 10.09,5.08 19.05,-10.12 8.89,-15.24 -4.24,-2.11 -8.47,-4.27 -12.7,-6.38 -10.13,-5.08 -19.05,10.12 -8.89,15.24l0 0z"/>
    <path class="fil1" d="M13050 7171.49c4.27,1.06 8.47,2.11 12.7,3.17 11.01,2.79 15.74,-14.21 4.69,-17 -4.19,-1.06 -8.46,-2.15 -12.7,-3.18 -11,-2.78 -15.7,14.26 -4.69,17.01l0 0z"/>
    <path class="fil1" d="M13462.05 7134.06c10.83,11.18 23.6,18.24 38.91,21.09 11.11,2.09 15.84,-14.92 4.69,-17 -12.49,-2.33 -22.23,-7.37 -31.12,-16.58 -7.9,-8.15 -20.35,4.3 -12.48,12.49l0 0z"/>
    <path class="fil1" d="M13538.21 7139.74c11.36,0 11.4,-17.64 0,-17.64 -11.32,0 -11.36,17.64 0,17.64l0 0z"/>
    <path class="fil1" d="M13221.56 7245.22c-1.77,28.64 0.49,56.83 6.49,84.91 2.4,11.08 19.4,6.39 17.04,-4.69 -5.68,-26.56 -7.55,-53.13 -5.89,-80.22 0.7,-11.33 -16.94,-11.29 -17.64,0l0 0z"/>
    <path class="fil1" d="M13260.29 7233.4c-1.27,9.53 -2.57,19.01 -3.84,28.5 -1.52,11.08 15.45,15.88 16.97,4.66 1.3,-9.49 2.61,-18.98 3.88,-28.47 1.51,-11.08 -15.46,-15.87 -17.01,-4.69l0 0z"/>
    <path class="fil1" d="M13273.42 7054.79c-3,-29.63 -3.78,-59.23 -2.33,-88.94 0.53,-11.36 -17.11,-11.32 -17.64,0 -1.45,29.71 -0.67,59.31 2.33,88.94 1.13,11.18 18.76,11.29 17.64,0l0 0z"/>
    <path class="fil1" d="M13235.88 7067.42c0,-11.64 0,-23.29 0,-34.93 0,-11.36 -17.64,-11.36 -17.64,0 0,11.64 0,23.29 0,34.93 0,11.36 17.64,11.36 17.64,0l0 0z"/>
    <path class="fil1" d="M13257.36 7746.94c-2.92,-37.04 -3.63,-74.05 -2.15,-111.2 0.46,-11.36 -17.18,-11.32 -17.64,0 -1.48,37.15 -0.77,74.16 2.16,111.2 0.88,11.22 18.52,11.32 17.63,0l0 0z"/>
    <path class="fil1" d="M13289.86 7772.27c0,-22.23 0,-44.45 0,-66.68 0,-11.36 -17.64,-11.39 -17.64,0 0,22.23 0,44.45 0,66.68 0,11.36 17.64,11.36 17.64,0l0 0z"/>
    <path class="fil1" d="M13076.46 9713.82c17.22,-25.51 39.12,-46.01 65.55,-61.7 9.77,-5.83 0.91,-21.07 -8.89,-15.24 -29,17.21 -53.03,40.07 -71.9,68.05 -6.39,9.42 8.89,18.23 15.24,8.89l0 0z"/>
    <path class="fil1" d="M13039.74 9774.99c11.36,0 11.36,-17.64 0,-17.64 -11.36,0 -11.36,17.64 0,17.64l0 0z"/>
    <path class="fil1" d="M13435.91 10771.87c1.09,-7.41 2.15,-14.82 3.21,-22.23 1.58,-11.11 -15.42,-15.91 -17.04,-4.69 -1.03,7.41 -2.12,14.82 -3.14,22.23 -1.63,11.07 15.38,15.91 16.97,4.69l0 0z"/>
    <path class="fil1" d="M13375.58 10778.99c0,-6.35 0,-12.7 0,-19.05 0,-11.36 -17.64,-11.36 -17.64,0 0,6.35 0,12.7 0,19.05 0,11.36 17.64,11.36 17.64,0l0 0z"/>
    <path class="fil1" d="M14169.33 10448.79c0,-6.35 0,-12.7 0,-19.05 0,-11.36 -17.64,-11.36 -17.64,0 0,6.35 0,12.7 0,19.05 0,11.36 17.64,11.36 17.64,0l0 0z"/>
    <path class="fil1" d="M13798.56 9533.69c11.36,0 11.36,-17.64 0,-17.64 -11.36,0 -11.36,17.64 0,17.64l0 0z"/>
    <path class="fil1" d="M13412.9 9166.94c98.53,-49.21 140.27,-150.07 161.68,-252.62 2.33,-11.08 -14.67,-15.81 -17,-4.7 -20.53,98.25 -58.81,194.74 -153.6,242.08 -10.16,5.08 -1.24,20.28 8.92,15.24l0 0z"/>
    <path class="fil1" d="M13506.07 9156.11c23.32,-19.97 42.34,-43.57 56.91,-70.63 5.36,-10.02 -9.85,-18.91 -15.24,-8.89 -13.9,25.79 -31.86,47.98 -54.16,67.03 -8.64,7.41 3.88,19.83 12.49,12.49l0 0z"/>
    <path class="fil1" d="M12877.99 8778.74c3.07,-79.55 34.89,-150.81 91.79,-206.48 8.15,-7.94 -4.34,-20.42 -12.45,-12.49 -60.12,58.81 -93.74,135.01 -96.98,218.97 -0.46,11.36 17.18,11.33 17.64,0l0 0z"/>
    <path class="fil1" d="M12841.86 8717.57c5.05,-35.38 18.98,-67.24 42.37,-94.37 7.37,-8.57 -5.04,-21.09 -12.49,-12.48 -25.29,29.35 -41.43,63.78 -46.87,102.16 -1.58,11.11 15.41,15.91 16.99,4.69l0 0z"/>
    <path class="fil1" d="M12302 8421.73c-69.69,-2.33 -146.29,-7.51 -201.68,-55 -23.45,-20.1 -74.02,-77.29 -20.61,-89.85 34.57,-8.15 83.38,15.28 111.79,31.61 15.68,9 32.3,-8.78 24.14,-24.13 -11.29,-21.27 -21.25,-43.21 -26.91,-66.67 -4.22,-17.47 -18.59,-101.57 43.05,-72.08 32.04,15.35 41.48,75 44.63,105.62 6.38,62.52 2.58,125.59 7.95,188.14 1.94,22.44 37.25,22.65 35.28,0 -8.35,-97.05 24.31,-267.05 -76.4,-329.74 -34.42,-21.45 -70.35,-7.9 -86.44,28.72 -23.25,52.88 3.51,116.98 28.37,163.79 8.05,-8.04 16.1,-16.09 24.14,-24.13 -50.21,-28.89 -224.19,-80.04 -190.16,32.95 36.04,119.66 176.33,142.49 282.85,146.05 22.73,0.74 22.68,-34.54 0,-35.28l0 0z"/>
    <path class="fil1" d="M12492.98 8198.42c-35.11,-33.37 -61.7,-72.14 -76.77,-118.46 -5.22,-16.05 -17.67,-49.95 -12.79,-65.83 12.83,-41.59 41.04,39.37 44.79,51.19 5.72,17.92 36.7,16.02 34.66,-4.73 -1.52,-15.2 -4.53,-36.51 1.49,-50.87 3.28,-7.79 18.56,-33.44 28.59,-30.34 21.93,6.85 5.83,81.74 2.14,94.87 -12.79,45.36 -35.24,87.84 -51.58,131.97 -7.91,21.34 26.18,30.52 34.01,9.38 25.33,-68.4 103.8,-194.76 38.55,-263.52 -62.42,-65.86 -92.19,71.01 -88.48,108.51 11.55,-1.55 23.08,-3.1 34.64,-4.69 -9.85,-30.97 -27.47,-78.32 -59.44,-92.96 -24.35,-11.18 -45.56,4.27 -52.66,27.98 -23.44,78.28 45.02,182.14 97.91,232.45 16.46,15.66 41.42,-9.25 24.94,-24.95l0 0z"/>
   </g>
  </g>
 </g>
</svg>
