<?xml version="1.0" encoding="UTF-8"?>
<!DOCTYPE svg PUBLIC "-//W3C//DTD SVG 1.1//EN" "http://www.w3.org/Graphics/SVG/1.1/DTD/svg11.dtd">
<!-- Creator: CorelDRAW 2020 (64-Bit) -->
<svg xmlns="http://www.w3.org/2000/svg" xml:space="preserve" width="10.083mm" height="10.083mm" version="1.1" style="shape-rendering:geometricPrecision; text-rendering:geometricPrecision; image-rendering:optimizeQuality; fill-rule:evenodd; clip-rule:evenodd"
viewBox="0 0 1008.3 1008.3"
 xmlns:xlink="http://www.w3.org/1999/xlink"
 xmlns:xodm="http://www.corel.com/coreldraw/odm/2003">
 <defs>
  <style type="text/css">
   <![CDATA[
    .fil0 {fill:#01777E}
   ]]>
  </style>
 </defs>
 <g id="Capa_x0020_1">
  <metadata id="CorelCorpID_0Corel-Layer"/>
  <g id="_2218863752336">
   <path class="fil0" d="M924.46 509.7c-2.4,16.43 -1.1,33.01 -4.6,50.25 -2.97,14.66 -7.16,30.47 -9.67,45.17 -2.43,14.29 -24.32,65.43 -31.52,78.55 -24.79,45.22 -56.31,90.38 -96.81,123.15 -47.91,38.76 -85.55,60.14 -139.05,80.76 -61.41,23.67 -123.54,23.11 -193.36,17.79 -52.61,-4.01 -115.9,-32.51 -161.03,-58.78 -14.29,-8.31 -24.52,-0.1 -40.43,5.01 -14.4,4.62 -28.58,8.46 -42.19,12.81 -8.11,2.59 -79.56,26.66 -83.43,26.78 -6.22,0.2 8.13,-33.33 10.05,-38.76 4.75,-13.46 9.14,-27.53 13.78,-41.14 4.66,-13.63 8.8,-27.76 13.63,-41.31 5.12,-14.35 13.48,-27.64 5.75,-39.97 -16.19,-25.8 -27.6,-41.5 -39.68,-70.42 -13.03,-31.16 -17.34,-52.96 -26.96,-83.11 -6.37,-19.98 -7.83,-78.64 -6.69,-102.86 1.4,-29.69 7,-65.81 16.72,-93.21 19.9,-56.07 36.65,-98.43 75.84,-144.15 78.44,-91.53 168.5,-138.13 288,-151.79 115.17,-13.16 246.27,37.45 323.32,114.01 33.73,33.51 72.2,80.58 91.75,128.16 20.17,49.08 44.43,129.18 36.58,183.06zm-435.19 -503.94c-37.49,4.29 -81.14,5.51 -115.52,18.27 -35.39,13.13 -62.94,20.52 -96.2,37.81 -50.93,26.46 -112.27,73.81 -148.8,118.76 -94.33,116.05 -137.22,262.47 -105.8,411.46 7.16,33.96 17.27,72.88 31.92,102.06 7.64,15.24 14.97,29.08 22.69,44.05 7.6,14.74 7.56,6.56 3.01,23.71 -1.85,6.95 -6.39,18.98 -8.65,25.11 -23.45,63.55 -46.35,132.99 -68.2,200.07 -10.7,32.87 -14.18,27.06 17.62,17.63 16.85,-5 34.93,-9.82 51.13,-16.05 30.72,-11.8 69.04,-21.15 101.58,-32.68 16.57,-5.87 34.49,-10.21 51.23,-15.68 12.91,-4.21 39.35,-17.64 50.74,-10.61 19.26,11.89 72.26,33.18 96.13,38.28 102.45,21.86 133.59,23.75 238.18,8.58 53.43,-7.76 146.26,-48.52 186.46,-81.86 57.14,-47.39 89.42,-71.52 130.29,-138.07 42.97,-69.96 56.44,-111.35 72.15,-195.98 13.58,-73.11 -0.66,-164.04 -26.67,-233.32 -28.18,-75.1 -57.33,-111.99 -102.29,-166.1 -34.17,-41.12 -110.05,-92.24 -156.73,-111.67 -67.73,-28.19 -147.71,-52.54 -224.27,-43.77z"/>
   <path class="fil0" d="M432.44 398.07c3.46,-9.62 -31.61,-79.79 -36.4,-94.92 -5.95,-18.78 -12.9,-32.76 -33.88,-32.67 -13.21,0.05 -40.95,5.98 -51.11,14.9 -60.8,53.38 -48.96,130.39 -16.38,192.65 23.4,44.71 77.7,110.19 118.59,145.16 51.3,43.88 105.21,73.04 170.77,92.1 38.22,11.11 70.46,18.84 108.16,1.5 35.68,-16.41 53.77,-29.4 64.53,-67.05 5.63,-19.72 8.64,-39.81 -9.99,-49.12 -14.46,-7.24 -30.3,-15.12 -44.58,-21.47 -11.7,-5.21 -34.35,-17.94 -44.97,-21.08 -29.87,-8.83 -23.8,-6.14 -40.97,15.16 -27.84,34.55 -29.84,56.08 -75.73,30.54 -29.86,-16.62 -53.97,-27.63 -79.43,-52.19 -23.7,-22.87 -42.13,-46 -59.78,-72.25 -15.37,-22.86 -11.79,-22.37 5.1,-41.85 11.9,-13.74 19.06,-19.9 26.07,-39.41z"/>
  </g>
 </g>
</svg>
