<?xml version="1.0" encoding="UTF-8"?>
<!DOCTYPE svg PUBLIC "-//W3C//DTD SVG 1.1//EN" "http://www.w3.org/Graphics/SVG/1.1/DTD/svg11.dtd">
<!-- Creator: CorelDRAW 2020 (64-Bit) -->
<svg xmlns="http://www.w3.org/2000/svg" xml:space="preserve" width="264.583mm" height="176.389mm" version="1.1" style="shape-rendering:geometricPrecision; text-rendering:geometricPrecision; image-rendering:optimizeQuality; fill-rule:evenodd; clip-rule:evenodd"
viewBox="0 0 26458.32 17638.88"
 xmlns:xlink="http://www.w3.org/1999/xlink"
 xmlns:xodm="http://www.corel.com/coreldraw/odm/2003">
 <defs>
  <style type="text/css">
   <![CDATA[
    .fil1 {fill:#315250;fill-rule:nonzero}
    .fil0 {fill:#EBF0ED;fill-rule:nonzero}
   ]]>
  </style>
 </defs>
 <g id="Capa_x0020_1">
  <metadata id="CorelCorpID_0Corel-Layer"/>
  <g id="_2162333764624">
   <g>
    <path class="fil0" d="M14590.3 8670.77c0,140.41 -113.84,254.25 -254.24,254.25 -140.44,0 -254.25,-113.84 -254.25,-254.25 0,-140.41 113.81,-254.25 254.25,-254.25 140.4,0 254.24,113.84 254.24,254.25z"/>
    <path class="fil0" d="M12278.55 8981.67c134.09,254 313.76,538.41 476.07,755.79 41.6,55.64 91.9,104.67 151.66,140.06 305.86,181.11 542.86,-97.4 611.54,-362.8 54.72,-211.53 48.58,-440.83 144.82,-637.01 78.28,-159.46 217.1,-281.31 307.13,-434.45 89.99,-153.17 116.77,-373.45 -16.83,-490.53 -51.61,-45.3 -285.29,-221.23 -606.78,-84.74 -193.36,82.09 -293.23,323.78 -496.36,377.26 -193.07,50.8 -412.29,-87.28 -582.47,88.02 -50.09,51.57 -81.91,118.6 -94.58,189.37 -28.93,161.29 31.19,317.71 105.8,459.03z"/>
   </g>
   <path class="fil1" d="M13314.91 9404.44c-238.2,256.97 -615.78,381.46 -959.59,302.02 -355.57,-82.17 -562.02,-426.72 -390.6,-764.76 155.72,-307.02 517.95,-484.36 852.52,-489.76 414.09,-6.7 794.78,298.77 633.27,741.19 -9.73,26.7 32.88,38.24 42.51,11.75 145,-397.2 -128.05,-728.17 -522.18,-786.8 -395.81,-58.85 -857.74,136.41 -1044.19,501.36 -159.52,312.28 -24.48,658.22 297.71,791.18 380.05,156.84 848.65,19.58 1121.7,-274.99 19.29,-20.78 -11.82,-52.07 -31.15,-31.19l0 0z"/>
   <path class="fil1" d="M13098.34 9261.85c-178.72,162.21 -459.04,249.34 -698.29,197.66 -249.49,-53.87 -403.9,-274.78 -267.66,-513.93 121.4,-213.11 385.77,-337.11 622.66,-354.71 267.26,-19.87 601.03,126.96 498.51,452.08 -8.54,27.13 34.01,38.74 42.51,11.75 86.78,-275.24 -125.66,-471.7 -386.4,-504.23 -299.68,-37.39 -660.93,103.23 -815.38,372.85 -125.65,219.43 -35.27,460.73 198.97,550.87 276.23,106.29 622.34,12.98 836.26,-181.16 21.06,-19.12 -10.19,-50.23 -31.18,-31.18l0 0z"/>
   <path class="fil1" d="M12990.24 8456.32c256.54,-319.41 737.7,-271.43 1054.88,-73.35 280,174.88 539.36,549.6 356.84,881.35 -196.89,357.89 -704.64,324.1 -1016.71,160.55 -301.34,-157.91 -563.56,-491.77 -457.87,-846.95 8.11,-27.24 -34.43,-38.88 -42.51,-11.71 -230.93,775.86 1147.09,1456.51 1555.19,720.37 180.79,-326.21 -38.7,-703.48 -309.04,-898.67 -335.95,-242.57 -884.41,-320.74 -1171.96,37.22 -17.6,21.91 13.4,53.31 31.18,31.19l0 0z"/>
   <path class="fil1" d="M13183.71 8510.86c326.18,-378.11 1264.95,50.02 1090.96,558.76 -102.62,299.97 -531.99,239.96 -749.19,132.82 -210.89,-104 -413.32,-307.9 -395.36,-559.4 2.01,-28.33 -42.09,-28.19 -44.1,0 -21.41,299.86 243.39,535.52 501.83,634.08 229.24,87.42 589.1,99.45 714.59,-160.76 120.12,-249.02 -93.1,-518.47 -291.96,-648.12 -245.64,-160.16 -642.62,-238.16 -857.92,11.43 -18.49,21.38 12.59,52.71 31.15,31.19l0 0z"/>
   <path class="fil1" d="M12033.3 9468.86c54.57,69.53 123.72,123.19 204.58,158.86 10.3,4.55 19.29,-10.66 8.92,-15.24 -79.59,-35.11 -147.32,-87.71 -201.05,-156.07 -6.98,-8.93 -19.4,3.59 -12.45,12.45l0 0z"/>
   <path class="fil1" d="M12022.89 9411.85c0,-1.41 0,-2.82 0,-4.23 0,-11.36 -17.64,-11.4 -17.64,0 0,1.41 0,2.82 0,4.23 0,11.36 17.64,11.36 17.64,0l0 0z"/>
   <path class="fil1" d="M12109.71 9485.62c25.15,28.54 54.15,52.95 86.5,73.06 9.67,6.03 18.52,-9.25 8.89,-15.24 -31.11,-19.37 -58.7,-42.83 -82.94,-70.31 -7.51,-8.54 -19.93,3.95 -12.45,12.49l0 0z"/>
   <path class="fil1" d="M14289.31 9346.02c80.72,-80.82 126.19,-184.15 131.59,-298.27 0.53,-11.4 -17.11,-11.36 -17.64,0 -5.19,109.64 -48.82,208.1 -126.44,285.78 -8.04,8.08 4.45,20.54 12.49,12.49l0 0z"/>
   <path class="fil1" d="M14323.39 9227.7c20.25,-24.84 33.87,-52.99 40.08,-84.45 2.18,-11.12 -14.82,-15.88 -17.01,-4.7 -5.57,28.37 -17.21,54.19 -35.52,76.7 -7.13,8.71 5.26,21.27 12.45,12.45l0 0z"/>
   <path class="fil1" d="M14422.84 8967.7c11.36,0 11.39,-17.64 0,-17.64 -11.32,0 -11.36,17.64 0,17.64l0 0z"/>
   <path class="fil1" d="M13072.55 9111.67c56.34,94.9 144.14,160.76 232.16,224.4 9.21,6.67 18.03,-8.64 8.89,-15.24 -85.62,-61.91 -171.03,-125.73 -225.85,-218.08 -5.78,-9.74 -21.06,-0.85 -15.2,8.92l0 0z"/>
   <path class="fil1" d="M13189.39 9172.21c24.27,29.56 52.84,54.57 85.19,75.03 9.63,6.07 18.45,-9.17 8.89,-15.24 -31.11,-19.65 -58.24,-43.85 -81.59,-72.28 -7.24,-8.78 -19.65,3.77 -12.49,12.49l0 0z"/>
   <path class="fil1" d="M13044.89 9082c11.36,0 11.39,-17.64 0,-17.64 -11.32,0 -11.36,17.64 0,17.64l0 0z"/>
   <path class="fil1" d="M13425.71 9164.73c21.81,-50.91 31.33,-103.96 27.59,-159.24 -0.74,-11.26 -18.38,-11.36 -17.64,0 3.53,52.03 -4.62,102.37 -25.15,150.31 -4.45,10.34 10.76,19.34 15.2,8.93l0 0z"/>
   <path class="fil1" d="M13392.59 9143.35c4.9,-20.46 9.8,-40.92 14.71,-61.38 2.61,-11.01 -14.36,-15.74 -17.04,-4.69 -4.87,20.49 -9.77,40.95 -14.68,61.41 -2.64,11.05 14.36,15.74 17.01,4.66l0 0z"/>
   <path class="fil1" d="M13434.36 8955c11.36,0 11.39,-17.64 0,-17.64 -11.33,0 -11.36,17.64 0,17.64l0 0z"/>
   <path class="fil1" d="M13383.56 8849.17c11.36,0 11.39,-17.64 0,-17.64 -11.33,0 -11.36,17.64 0,17.64l0 0z"/>
   <path class="fil1" d="M13163.56 9510.38c46.39,-31.61 89.72,-66.96 129.83,-106.15 8.11,-7.97 -4.34,-20.43 -12.49,-12.45 -39.05,38.13 -81.11,72.6 -126.23,103.36 -9.34,6.35 -0.52,21.63 8.89,15.24l0 0z"/>
   <path class="fil1" d="M13205.65 9425.26c18.35,-11.19 35.38,-23.92 51.37,-38.32 8.43,-7.62 -4.06,-20.1 -12.49,-12.48 -14.86,13.4 -30.69,25.15 -47.77,35.56 -9.7,5.89 -0.85,21.16 8.89,15.24l0 0z"/>
   <path class="fil1" d="M12949.64 8598.84c-9.84,23.85 -14.82,48.51 -15.38,74.26 -0.28,11.39 17.36,11.39 17.64,0 0.53,-24.27 5.5,-47.13 14.74,-69.57 4.34,-10.48 -12.73,-15.06 -17,-4.69l0 0z"/>
   <path class="fil1" d="M12995.22 8604.77c-16.26,41.83 -22.12,84.98 -17.71,129.68 1.13,11.18 18.77,11.29 17.64,0 -4.27,-43.11 1.41,-84.63 17.07,-124.99 4.09,-10.59 -12.94,-15.17 -17,-4.69l0 0z"/>
   <path class="fil1" d="M13002.56 8851.29c11.36,0 11.36,-17.64 0,-17.64 -11.33,0 -11.36,17.64 0,17.64l0 0z"/>
   <path class="fil1" d="M13050.85 8463.23c25.05,-30.76 54.01,-57.4 87,-79.48 9.35,-6.24 0.53,-21.55 -8.93,-15.2 -34.18,22.89 -64.52,50.27 -90.56,82.23 -7.09,8.71 5.33,21.27 12.49,12.45l0 0z"/>
   <path class="fil1" d="M13104.12 8474.13c10.55,-11.32 21.13,-22.65 31.68,-33.94 7.76,-8.29 -4.69,-20.77 -12.45,-12.48 -10.55,11.32 -21.13,22.61 -31.68,33.93 -7.76,8.29 4.69,20.78 12.45,12.49l0 0z"/>
   <path class="fil1" d="M13220.57 8345.4c11.36,0 11.4,-17.64 0,-17.64 -11.32,0 -11.36,17.64 0,17.64l0 0z"/>
   <path class="fil1" d="M12631.22 8300.6c-97.29,-3.7 -208.52,-11.99 -258.05,-109.85 -14.75,-29.21 -32.67,-75.99 12.66,-80.93 54.4,-5.93 114.3,38.77 147.81,75.56 12.32,13.48 33.55,-0.77 29.5,-17.14 -9.32,-37.43 -22.44,-81.32 -20.99,-120.12 1.83,-48.3 30.58,-43.68 63.36,-14.5 12.55,11.18 18.02,36.72 22.82,51.4 23.67,72.49 19.16,154.97 -12.35,224.29 -9.31,20.54 21.06,38.49 30.45,17.82 43.67,-96.03 54.96,-265.75 -35.85,-342.27 -31.43,-26.45 -68.26,-25.54 -91.96,9.64 -31.12,46.21 -1.63,134.33 10.51,183.12 9.81,-5.75 19.65,-11.46 29.46,-17.18 -45.3,-49.74 -245.82,-158.71 -236.29,-20.35 10.93,158.75 181.82,190.99 308.92,195.79 22.69,0.81 22.65,-34.47 0,-35.28l0 0z"/>
   <path class="fil1" d="M12899.37 7974.49c-28.93,-41.34 -62.65,-77.29 -96.1,-114.83 -19.29,-21.62 -47.98,-51.85 -45.58,-83.18 5.37,-69.96 71.79,19.93 79.63,39.44 7.62,18.98 32.06,15.31 34.64,-4.69 2.47,-19.12 -8.26,-50.56 11.99,-63.54 53.55,-34.29 44.56,79.02 42.34,90.21 -9.56,48.57 -35.14,92.92 -57.4,136.59 -10.3,20.18 20.14,38.07 30.48,17.82 34.96,-68.55 104.88,-185.81 44.8,-259.47 -19.75,-24.17 -50.66,-30.66 -78.03,-15.59 -39.37,21.62 -24.7,57.15 -29.46,93.98 11.57,-1.56 23.11,-3.11 34.64,-4.69 -18.17,-45.3 -106.99,-148.63 -144.88,-64.42 -17.68,39.33 5.57,84.35 29.03,115.46 35.49,47.1 79.41,86.08 113.42,134.73 12.91,18.45 43.5,0.84 30.48,-17.82l0 0z"/>
  </g>
 </g>
</svg>
