<?xml version="1.0" encoding="UTF-8"?>
<!DOCTYPE svg PUBLIC "-//W3C//DTD SVG 1.1//EN" "http://www.w3.org/Graphics/SVG/1.1/DTD/svg11.dtd">
<!-- Creator: CorelDRAW 2020 (64-Bit) -->
<svg xmlns="http://www.w3.org/2000/svg" xml:space="preserve" width="264.583mm" height="176.389mm" version="1.1" style="shape-rendering:geometricPrecision; text-rendering:geometricPrecision; image-rendering:optimizeQuality; fill-rule:evenodd; clip-rule:evenodd"
viewBox="0 0 26458.32 17638.88"
 xmlns:xlink="http://www.w3.org/1999/xlink"
 xmlns:xodm="http://www.corel.com/coreldraw/odm/2003">
 <defs>
  <style type="text/css">
   <![CDATA[
    .fil1 {fill:#315250;fill-rule:nonzero}
    .fil0 {fill:#EBF0ED;fill-rule:nonzero}
   ]]>
  </style>
 </defs>
 <g id="Capa_x0020_1">
  <metadata id="CorelCorpID_0Corel-Layer"/>
  <g id="_2162235274976">
   <g>
    <path class="fil0" d="M11772.46 8422.33c1.87,104.21 19.23,207.37 43.43,308.75 26.46,110.92 10.4,162.95 -4.91,321.1 -19.19,197.7 -11.64,417.16 119.45,566.35 51.97,59.09 119.74,102.31 190.36,137.02 232.38,114.34 534.5,133.67 733.75,-31.79 157.37,-130.73 217.27,-343.92 342.54,-505.7 127.28,-164.36 315.49,-267.97 474.91,-401.43 183.2,-153.42 333.91,-357.86 376.59,-592.98 42.69,-235.09 -40.6,-500.66 -239.25,-633.49 -60.82,-40.64 -282.33,-64.87 -437.8,47.45 -397.47,287.09 -1038.12,-207.11 -1415.87,191.67 -34.22,36.12 -62.97,77.4 -86.15,121.46 -78.74,149.58 -99.98,310.2 -97.05,471.59z"/>
    <path class="fil0" d="M14728.67 9303.89c0,93.59 -75.92,169.51 -169.55,169.51 -93.63,0 -169.54,-75.92 -169.54,-169.51 0,-93.66 75.91,-169.55 169.54,-169.55 93.63,0 169.55,75.89 169.55,169.55z"/>
   </g>
   <g>
    <path class="fil1" d="M13158.24 8373.97c-47.87,83.22 -407.92,4.9 -465.91,-5.05 -48.4,-8.32 -457.17,-106.08 -427.43,-146.68 56.31,-76.91 413.78,7.97 478.26,20 72.89,13.62 396.35,57.15 412.86,148.7 5.01,27.9 47.52,16.08 42.51,-11.72 -32.17,-178.43 -972.12,-316.58 -994.13,-162.06 -17.29,121.39 390.77,178.36 444.01,188.27 108.26,20.22 475.08,117.37 547.9,-9.2 14.18,-24.66 -23.92,-46.92 -38.07,-22.26z"/>
    <path class="fil1" d="M12204.79 8214.23c-59.66,343.85 -255.66,955.11 253.22,1071.74 27.66,6.31 39.44,-36.2 11.72,-42.51 -477.91,-109.54 -277.82,-698.26 -222.43,-1017.52 4.83,-27.73 -37.68,-39.65 -42.51,-11.71l0 0z"/>
    <path class="fil1" d="M13156.02 8379.22c-55.81,321.81 -64.49,944.32 -554.46,887.31 -28.15,-3.28 -27.91,40.85 0,44.1 515.3,59.93 537.42,-576.44 596.97,-919.69 4.8,-27.73 -37.68,-39.66 -42.51,-11.72l0 0z"/>
    <path class="fil1" d="M12661.04 9281.8c-68.34,47.31 -84.56,117.9 -103.09,193.61 -35.17,143.97 -110.77,340.89 -92.53,487.54 6.88,55 35.28,100.29 75.5,137.37 20.39,18.77 40.99,29.32 65.15,44.34 32.74,20.36 177.42,46.96 119.45,76.77 -32.2,16.58 -141.99,-14.47 -174.48,-19.09 -75.18,-10.69 -150.11,-23.24 -224.82,-36.83 -69.26,-12.63 -138.61,-25.68 -207.12,-41.84 -76.66,-18.02 -180.87,-20.67 6.74,-53.16 135.5,-23.42 233.22,-42.83 265.82,-192.37 31.71,-145.52 123.19,-493.68 20.63,-636.83 -16.4,-22.86 -54.68,-0.85 -38.1,22.26 47.28,66 29.25,185.73 21.59,264.65 -10.16,105.41 -5.85,273.76 -51.86,370.28 -101,211.7 -198.12,65.44 -330.94,137.26 -194.48,105.2 260.99,164.89 301.52,172.26 59.8,10.9 476.54,126.33 483.41,10.87 2.51,-41.74 -48.54,-61.21 -75.35,-78.11 -58.91,-37.14 -142.94,-55.56 -189.37,-115.43 -48.97,-63.18 0.81,-224.4 16.12,-300.99 20.22,-101 36.51,-337 133.99,-404.49 23.17,-16.05 1.16,-54.29 -22.26,-38.07l0 0z"/>
    <path class="fil1" d="M14090.03 7858.35c0.14,95.88 -351.33,208.06 -406.4,228.38 -45.93,16.94 -448.31,136.85 -443.23,86.51 9.6,-94.41 363.4,-200.24 424.64,-221.83 69.68,-24.55 371.55,-148.41 431.48,-77.47 18.31,21.7 49.39,-9.63 31.19,-31.19 -117.44,-138.92 -1000.97,212.38 -942.16,356.45 46.28,113.42 427.46,-40.92 478.93,-59.05 103.96,-36.66 469.86,-135.65 469.65,-281.8 -0.03,-28.37 -44.13,-28.44 -44.1,0z"/>
    <path class="fil1" d="M13184.42 8196.55c120.51,328.69 255.59,954.83 755.12,801.45 27.02,-8.33 15.49,-50.88 -11.71,-42.51 -469.16,144.07 -589.11,-465.74 -700.9,-770.65 -9.67,-26.42 -52.32,-14.99 -42.51,11.71l0 0z"/>
    <path class="fil1" d="M14090.84 7864.2c111.98,305.47 416.49,850.94 -37.14,1045.39 -26,11.15 -3.6,49.14 22.26,38.1 476.81,-204.4 176.85,-769.44 57.39,-1095.2 -9.7,-26.46 -52.31,-15.03 -42.51,11.71l0 0z"/>
    <path class="fil1" d="M14113.07 8892.83c-35.7,79.06 -11.92,153.28 11.01,231.53 40.42,137.8 74.04,356.69 167.11,466.02 35.38,41.56 86.22,65.62 139.27,74.79 50.87,8.78 271.64,-39.62 191.17,18.06 -104.7,74.97 -270.15,112.15 -390.8,154.48 -59.41,20.89 -119.17,41.56 -179.6,59.27 -19.3,5.61 -45.55,19.01 -65.69,18.03 -86.99,-4.24 71.54,-70.88 98.74,-96.21 103.76,-96.34 130.28,-171.06 81.71,-305.33 -49.89,-137.79 -132.61,-460.37 -288.54,-531.1 -25.65,-11.61 -48.08,26.38 -22.26,38.1 74.15,33.62 118.25,146.15 151.2,218.68 44.84,98.61 106.26,210.86 128.59,316.45 49.25,232.97 -126.97,188.66 -206.55,314.14 -114.76,181.01 274,24.59 314.14,10.48 60.51,-21.24 494.32,-132.71 461.16,-236.36 -8.51,-26.49 -36.38,-31.57 -59.13,-37.71 -32.95,-8.89 -53.66,6.74 -84.03,6.49 -191.63,-1.69 -265.82,-111.72 -315,-255.98 -34.5,-101.28 -146.36,-326.6 -94.36,-441.57 11.57,-25.64 -26.39,-48.12 -38.14,-22.26l0 0z"/>
    <path class="fil1" d="M12242.25 8958.73c28.9,109.04 108.94,194.73 215.45,231.6 10.72,3.74 15.34,-13.3 4.65,-17 -100.65,-34.86 -175.82,-116.39 -203.09,-219.29 -2.89,-10.97 -19.93,-6.32 -17.01,4.69l0 0z"/>
    <path class="fil1" d="M12324.52 9009.92c22.51,49.85 57.75,91.05 103.05,121.67 9.42,6.35 18.27,-8.92 8.89,-15.24 -42.83,-28.96 -75.46,-68.3 -96.73,-115.36 -4.66,-10.3 -19.86,-1.34 -15.21,8.93l0 0z"/>
    <path class="fil1" d="M12237.42 8874.35c11.33,0 11.36,-17.64 0,-17.64 -11.36,0 -11.39,17.64 0,17.64l0 0z"/>
    <path class="fil1" d="M12247.51 8588.14c8.78,-70.56 21.66,-140.2 38.49,-209.27 2.71,-11.01 -14.32,-15.7 -17.01,-4.66 -17.18,70.59 -30.12,141.82 -39.12,213.93 -1.41,11.22 16.23,11.11 17.64,0l0 0z"/>
    <path class="fil1" d="M12305.08 8495.32c2.93,-19.65 7.87,-38.56 14.89,-57.15 4.02,-10.62 -13.02,-15.24 -17.04,-4.69 -7.02,18.59 -11.92,37.5 -14.85,57.15 -1.69,11.11 15.31,15.91 17,4.69l0 0z"/>
    <path class="fil1" d="M12378.88 8497.37c4.24,-16.23 8.51,-32.46 12.74,-48.69 2.86,-11 -14.15,-15.69 -17,-4.69 -4.24,16.23 -8.51,32.42 -12.74,48.65 -2.86,11.01 14.15,15.7 17,4.73l0 0z"/>
    <path class="fil1" d="M12239.54 8694.43c11.32,0 11.36,-17.64 0,-17.64 -11.36,0 -11.4,17.64 0,17.64l0 0z"/>
    <path class="fil1" d="M13022.74 8819.21c33.23,-87.74 52.74,-177.73 59.23,-271.22 0.78,-11.32 -16.86,-11.29 -17.64,0 -6.38,91.97 -25.93,180.38 -58.56,266.49 -4.02,10.65 13.02,15.24 16.97,4.73l0 0z"/>
    <path class="fil1" d="M13006.9 8677.04c14.01,-47.77 22.44,-96.24 25.58,-145.91 0.7,-11.33 -16.94,-11.29 -17.64,0 -3.07,48.12 -11.43,95.04 -24.94,141.25 -3.18,10.9 13.82,15.56 17,4.66l0 0z"/>
    <path class="fil1" d="M12963.12 8598.97c3.42,-12.74 6.81,-25.47 10.23,-38.21 2.93,-10.97 -14.08,-15.66 -17.04,-4.69 -3.39,12.74 -6.81,25.47 -10.23,38.21 -2.93,10.97 14.11,15.66 17.04,4.69l0 0z"/>
    <path class="fil1" d="M13073.5 8512.4c11.33,0 11.36,-17.64 0,-17.64 -11.39,0 -11.39,17.64 0,17.64l0 0z"/>
    <path class="fil1" d="M12986.72 8923.03c11.33,0 11.36,-17.64 0,-17.64 -11.36,0 -11.36,17.64 0,17.64l0 0z"/>
    <path class="fil1" d="M12752.02 9214.99c32.45,-6.88 61.17,-23.11 83.89,-47.24 7.79,-8.25 -4.62,-20.78 -12.45,-12.49 -20.92,22.19 -46.36,36.37 -76.1,42.72 -11.15,2.37 -6.42,19.34 4.66,17.01l0 0z"/>
    <path class="fil1" d="M12870.3 9126.23c11.33,0 11.36,-17.64 0,-17.64 -11.36,0 -11.36,17.64 0,17.64l0 0z"/>
    <path class="fil1" d="M12311.89 10080.99c30.06,-25.08 55.67,-54.29 76.87,-87.17 6.18,-9.6 -9.1,-18.45 -15.24,-8.93 -20.39,31.68 -45.19,59.51 -74.12,83.61 -8.71,7.3 3.81,19.72 12.49,12.49l0 0z"/>
    <path class="fil1" d="M12384.81 10076.51c6.42,-10.52 12.88,-21.06 19.3,-31.58 5.93,-9.7 -9.31,-18.59 -15.24,-8.92 -6.42,10.55 -12.84,21.09 -19.3,31.61 -5.93,9.7 9.31,18.59 15.24,8.89l0 0z"/>
    <path class="fil1" d="M12445.17 10099.54c0.35,-5.82 1.66,-11.39 3.95,-16.72 3.78,-10.72 -13.26,-15.34 -17,-4.69 -2.58,7.27 -3.81,13.83 -4.55,21.41 -1.13,11.29 16.51,11.22 17.6,0l0 0z"/>
    <path class="fil1" d="M12255.91 8249.15c48.75,-21.2 100.54,-26.63 152.68,-16.33 11.11,2.19 15.84,-14.82 4.69,-17 -57.22,-11.33 -112.82,-5.15 -166.26,18.09 -10.41,4.52 -1.45,19.72 8.89,15.24l0 0z"/>
    <path class="fil1" d="M12468.14 8243.58c11.32,0 11.36,-17.64 0,-17.64 -11.36,0 -11.4,17.64 0,17.64l0 0z"/>
    <path class="fil1" d="M12978.11 8331.63c62.76,11.15 119.77,36.62 169.44,76.73 8.75,7.06 21.35,-5.36 12.49,-12.49 -52.07,-42.01 -111.3,-69.53 -177.27,-81.24 -11.08,-2.01 -15.84,14.99 -4.66,17l0 0z"/>
    <path class="fil1" d="M12899.94 8317.66c11.32,0 11.36,-17.64 0,-17.64 -11.36,0 -11.36,17.64 0,17.64l0 0z"/>
    <path class="fil1" d="M13534.09 8793.45c70.06,94.44 177.48,146.58 295.17,141.72 11.29,-0.46 11.36,-18.14 0,-17.64 -111.23,4.62 -213.43,-43.36 -279.93,-132.97 -6.67,-9.03 -22.01,-0.21 -15.24,8.89l0 0z"/>
    <path class="fil1" d="M13607.36 8795.25c40.85,44.52 93.91,72.85 153.74,81.64 11.08,1.62 15.88,-15.38 4.7,-17.01 -57.08,-8.39 -106.93,-34.53 -145.98,-77.11 -7.69,-8.37 -20.11,4.12 -12.46,12.48l0 0z"/>
    <path class="fil1" d="M13522.2 8747.35c11.4,0 11.4,-17.64 0,-17.64 -11.32,0 -11.36,17.64 0,17.64l0 0z"/>
    <path class="fil1" d="M14104.85 8071.25c60.47,108.72 97.83,224.29 111.94,347.8 1.27,11.15 18.91,11.29 17.64,0 -14.47,-126.5 -52.46,-245.46 -114.34,-356.69 -5.54,-9.95 -20.74,-1.06 -15.24,8.89l0 0z"/>
    <path class="fil1" d="M14224.62 8486.64c0,2.83 0,5.65 0,8.47 0,11.36 17.64,11.36 17.64,0 0,-2.82 0,-5.64 0,-8.47 0,-11.36 -17.64,-11.36 -17.64,0l0 0z"/>
    <path class="fil1" d="M14113.46 8215.99c17.85,37.29 31.01,75.92 39.9,116.28 2.43,11.08 19.47,6.38 17.04,-4.69 -9.25,-41.81 -23.22,-81.88 -41.7,-120.48 -4.94,-10.23 -20.11,-1.3 -15.24,8.89l0 0z"/>
    <path class="fil1" d="M13294.27 8298.26c15.14,44.87 32.78,88.69 52.85,131.59 4.76,10.26 20,1.34 15.2,-8.89 -19.4,-41.56 -36.37,-83.96 -51.08,-127.39 -3.63,-10.69 -20.64,-6.1 -16.97,4.69l0 0z"/>
    <path class="fil1" d="M13347.05 8313.22c2.47,12.24 6.6,23.25 12.49,34.25 5.32,10.02 20.56,1.1 15.24,-8.89 -5.22,-9.7 -8.54,-19.36 -10.76,-30.05 -2.26,-11.12 -19.26,-6.42 -16.97,4.69l0 0z"/>
    <path class="fil1" d="M13422.37 8340.91c1.48,4.9 2.92,9.84 4.41,14.78 3.24,10.83 20.28,6.21 17.04,-4.69 -1.49,-4.94 -2.97,-9.84 -4.41,-14.78 -3.29,-10.83 -20.29,-6.21 -17.04,4.69l0 0z"/>
    <path class="fil1" d="M13257.58 8203.26c13.87,-53.66 90.46,-84.74 137.83,-101.96 10.59,-3.84 6.04,-20.88 -4.69,-17 -54.85,19.97 -133.98,51.79 -150.18,114.27 -2.85,11 14.15,15.66 17.04,4.69l0 0z"/>
    <path class="fil1" d="M13429.1 8089.06c11.33,0 11.36,-17.64 0,-17.64 -11.36,0 -11.36,17.64 0,17.64l0 0z"/>
    <path class="fil1" d="M13308.6 8208.41c11.99,-8.47 23.95,-16.97 35.94,-25.44 9.21,-6.49 0.39,-21.8 -8.89,-15.24 -11.96,8.5 -23.95,16.97 -35.94,25.44 -9.21,6.49 -0.43,21.8 8.89,15.24l0 0z"/>
    <path class="fil1" d="M13869.97 7931.9c54.58,-27.55 167.78,-68.19 223.8,-26.28 9.07,6.81 17.85,-8.47 8.89,-15.21 -61.77,-46.25 -181.29,-4.19 -241.61,26.29 -10.13,5.11 -1.2,20.32 8.92,15.2l0 0z"/>
    <path class="fil1" d="M13805.84 7949.36c11.39,0 11.39,-17.64 0,-17.64 -11.33,0 -11.36,17.64 0,17.64l0 0z"/>
    <path class="fil1" d="M13977.85 7939.49c28.58,-8.44 56.87,-7.1 84.63,3.56 10.62,4.09 15.21,-12.98 4.69,-17.01 -30.48,-11.71 -62.76,-12.8 -93.98,-3.56 -10.86,3.21 -6.24,20.25 4.66,17.01l0 0z"/>
    <path class="fil1" d="M14114.83 8851.52c31.37,-18.13 58.81,-41.24 81.92,-69.14 7.16,-8.72 -5.26,-21.24 -12.49,-12.49 -22.15,26.81 -48.22,49 -78.32,66.39 -9.8,5.68 -0.95,20.92 8.89,15.24l0 0z"/>
    <path class="fil1" d="M14142.32 8795.54c2.08,-2.09 4.23,-4.2 6.31,-6.32 8.04,-8.04 -4.45,-20.53 -12.45,-12.49 -2.12,2.12 -4.24,4.24 -6.35,6.35 -8.05,8.05 4.41,20.5 12.49,12.46l0 0z"/>
    <path class="fil1" d="M14150.25 9832.03c57.96,-44.94 90.24,-112.25 89.93,-185.45 -0.04,-11.36 -17.68,-11.36 -17.64,0 0.31,69.11 -30.24,130.7 -84.74,173 -8.96,6.95 3.6,19.33 12.45,12.45l0 0z"/>
    <path class="fil1" d="M14250.55 9800.6c17.11,-27.48 25.75,-58.17 25.68,-90.52 0,-11.36 -17.64,-11.4 -17.64,0 0.07,29.45 -7.69,56.62 -23.28,81.63 -6.04,9.67 9.24,18.52 15.24,8.89l0 0z"/>
    <path class="fil1" d="M14320.22 9743.91c0.85,-8.47 1.66,-16.9 2.54,-25.37 1.13,-11.29 -16.51,-11.18 -17.64,0 -0.88,8.47 -1.69,16.9 -2.54,25.37 -1.16,11.29 16.48,11.22 17.64,0l0 0z"/>
    <path class="fil1" d="M14214.39 9608.83c11.32,0 11.36,-17.64 0,-17.64 -11.36,0 -11.4,17.64 0,17.64l0 0z"/>
    <path class="fil1" d="M12905.19 7939.84c-49.81,-29.71 -97.64,-62.27 -143.58,-97.72 -17.95,-13.87 -35.56,16.76 -17.81,30.44 45.93,35.46 93.77,68.05 143.58,97.72 19.58,11.64 37.36,-18.84 17.81,-30.44l0 0z"/>
    <path class="fil1" d="M13033.71 7866.74c-32.7,-96.52 -61.17,-194.17 -85.48,-293.12 -5.39,-22.05 -39.44,-12.74 -34,9.35 24.34,98.99 52.77,196.64 85.47,293.16 7.24,21.37 41.31,12.24 34.01,-9.39l0 0z"/>
    <path class="fil1" d="M13233.88 7875.74c13.76,-28.4 27.55,-56.76 41.34,-85.13 9.92,-20.35 -20.53,-38.24 -30.44,-17.81 -13.8,28.36 -27.59,56.76 -41.42,85.12 -9.88,20.32 20.53,38.24 30.52,17.82l0 0z"/>
    <path class="fil1" d="M12891.89 7409.97c22.72,0 22.76,-35.28 0,-35.28 -22.68,0 -22.71,35.28 0,35.28l0 0z"/>
    <path class="fil1" d="M12612.49 7812.13c22.72,0 22.76,-35.28 0,-35.28 -22.68,0 -22.71,35.28 0,35.28l0 0z"/>
    <path class="fil1" d="M11864.04 9281.56c-49.42,-35.91 -111.44,-70.91 -174.1,-47.84 -46.95,17.32 -75.35,57.82 -68.96,107.67 18.69,145.13 216.99,141.04 326.39,139.35 55.14,-0.85 67.55,-2.47 69.21,-57.72 2.01,-65.93 6.81,-151.2 -25.5,-211.95 -18.24,-34.25 -58.6,-72.85 -100.97,-55.67 -51.86,21.03 -45.08,108.03 -44.48,150.39 0.31,22.69 35.59,22.76 35.27,0 -0.45,-31.39 -13.26,-141.71 61.18,-103.22 24.83,12.81 32.06,66.39 35.27,91.93 3.85,30.56 9.7,70.88 4.31,101.22 -7.94,44.59 -13.83,50.37 -60.5,49.77 -62.41,-0.81 -133.81,-2.47 -192.83,-24.2 -82.31,-30.37 -96.8,-157.9 4.65,-159.81 42.76,-0.81 80.44,26.67 113.25,50.52 18.38,13.37 36.01,-17.21 17.81,-30.44l0 0z"/>
    <path class="fil1" d="M14651.66 9256.12c-36.69,-44.84 -63.54,-95.92 -76.63,-152.61 -3.77,-16.12 -6.38,-32.49 -7.76,-49.04 -6.56,-34.57 17.25,-49.21 71.44,-43.95 25.19,20.32 28.15,65.4 31.43,94.47 2.54,22.51 33.06,22.86 35.28,0 9.14,-49.92 36.48,-63.46 81.98,-40.71 7.66,19.65 7.13,38.28 -1.48,55.85 -7.86,24.83 -21.9,45.36 -40.46,63.43 -32.32,31.43 -75,50.69 -115.18,69.81 -20.5,9.74 -2.65,40.18 17.81,30.45 50.59,-24.03 104.11,-49.68 139.91,-94.41 24.88,-31.08 51.19,-84.35 38.46,-124.85 -30.69,-97.47 -148.73,-38.13 -156.32,40.43 11.78,0 23.53,0 35.28,0 -5.33,-47.13 -12.7,-100.26 -54.33,-130.14 -29.98,-21.52 -75.39,-22.79 -101.39,6.39 -30.23,33.9 -17.92,92.25 -8.68,131.65 14.75,62.83 45.05,118.5 85.66,168.17 14.39,17.61 39.23,-7.51 24.98,-24.94l0 0z"/>
   </g>
  </g>
 </g>
</svg>
