<?xml version="1.0" encoding="UTF-8"?>
<!DOCTYPE svg PUBLIC "-//W3C//DTD SVG 1.1//EN" "http://www.w3.org/Graphics/SVG/1.1/DTD/svg11.dtd">
<!-- Creator: CorelDRAW 2020 (64-Bit) -->
<svg xmlns="http://www.w3.org/2000/svg" xml:space="preserve" width="264.583mm" height="176.389mm" version="1.1" style="shape-rendering:geometricPrecision; text-rendering:geometricPrecision; image-rendering:optimizeQuality; fill-rule:evenodd; clip-rule:evenodd"
viewBox="0 0 26458.32 17638.88"
 xmlns:xlink="http://www.w3.org/1999/xlink"
 xmlns:xodm="http://www.corel.com/coreldraw/odm/2003">
 <defs>
  <style type="text/css">
   <![CDATA[
    .fil1 {fill:#315250;fill-rule:nonzero}
    .fil0 {fill:#EBF0ED;fill-rule:nonzero}
   ]]>
  </style>
 </defs>
 <g id="Capa_x0020_1">
  <metadata id="CorelCorpID_0Corel-Layer"/>
  <g id="_2162265070912">
   <g>
    <path class="fil0" d="M13339.4 8099.31c-95.88,25.65 -197.94,-25.22 -288.22,-66.53 -122.41,-56.06 -231.95,-146.41 -364.63,-169.55 -156.17,-27.2 -313.02,45.02 -442.8,136.03 -90.07,63.18 -175.12,138.93 -224.69,237.14 -85.44,169.26 -53.16,377.79 -130.28,550.97 -42.51,95.53 -115.99,174.59 -159.74,269.59 -61.42,133.39 -57.82,294.96 9.46,425.49 17.71,34.32 40.32,67.31 72.35,88.82 54.01,36.31 124.21,34.01 189.16,29.92 173.96,-11.01 372.89,-16.4 493.4,109.47 70.73,73.87 97.89,178.22 150.56,265.85 116.56,193.92 352.67,290.41 578.84,297.22 190.01,5.71 384.6,-45.23 535.69,-160.55 151.1,-115.36 253.97,-298.07 254.5,-488.14 0.77,-288.61 -216.36,-525.82 -322.83,-794.03 -20.32,-51.23 -36.9,-105.66 -32.74,-160.59 3.99,-53.27 27.06,-102.87 42.97,-153.84 33.9,-108.55 32.95,-234.71 -32.53,-327.66 -55.63,-79.06 -245.88,-111.69 -328.47,-89.61z"/>
    <path class="fil0" d="M14329.44 9250.42c0,63.08 -51.12,114.16 -114.16,114.16 -63.08,0 -114.16,-51.08 -114.16,-114.16 0,-63.04 51.08,-114.16 114.16,-114.16 63.04,0 114.16,51.12 114.16,114.16z"/>
    <path class="fil0" d="M11832.16 8608.19c0,40.54 -32.84,73.38 -73.38,73.38 -40.53,0 -73.38,-32.84 -73.38,-73.38 0,-40.53 32.85,-73.38 73.38,-73.38 40.54,0 73.38,32.85 73.38,73.38z"/>
   </g>
   <g>
    <path class="fil1" d="M11822 8768.28c152.22,457.52 304.41,915.04 456.6,1372.55 2.82,8.47 11.43,17.22 21.27,16.2 648.02,-66.29 1296.07,-132.58 1944.09,-198.86 12.28,-1.27 21.48,-9.11 22.05,-22.05 22.15,-509.55 44.27,-1019.14 66.43,-1528.73 0.67,-15.8 -14.57,-23.18 -27.91,-21.27 -822.36,118.35 -1644.75,236.68 -2467.11,355.03 -27.98,4.03 -16.09,46.53 11.71,42.55 509.23,-73.31 1018.5,-146.58 1527.74,-219.85 273.89,-39.44 547.76,-78.85 821.62,-118.25 29.56,-4.24 62.12,-5.26 90.94,-13.09 45.44,-12.28 -0.38,2.15 -1.37,-18.45 4.27,89.5 -7.98,183.05 -11.86,272.45 -14.25,328.01 -28.5,656.02 -42.75,984.07 -3.14,72.22 15.03,192.76 -11.36,261.41 11.6,-30.16 31.47,-12.95 -11.4,-14.5 -39.01,-1.41 -81.91,8.36 -120.65,12.31 -307.37,31.47 -614.75,62.9 -922.09,94.34 -165.56,16.93 -331.11,33.86 -496.67,50.8 -102.13,10.44 -222.71,5.5 -321.88,32.91 -32.52,9 -58.98,-10.05 -29.14,18.63 -16.61,-15.95 -24.02,-72.18 -30.94,-92.96 -50.87,-152.86 -101.7,-305.72 -152.54,-458.58 -90.77,-272.8 -181.5,-545.6 -272.24,-818.41 -8.92,-26.77 -51.54,-15.31 -42.54,11.75z"/>
    <path class="fil1" d="M12179.26 8710.64c-27.1,-102.13 -54.19,-204.26 -81.25,-306.39 -5.15,9.03 -10.26,18.06 -15.41,27.13 157.34,-23.35 314.67,-46.71 471.98,-70.06 -9.28,-7.09 -18.59,-14.18 -27.91,-21.27 6.64,105.86 13.27,211.73 19.86,317.6 1.8,28.22 45.9,28.4 44.1,0 -6.6,-105.87 -13.23,-211.74 -19.86,-317.6 -0.99,-15.6 -13.23,-23.43 -27.9,-21.28 -157.34,23.36 -314.65,46.75 -471.99,70.1 -11.88,1.73 -18.13,16.72 -15.38,27.09 27.06,102.13 54.12,204.26 81.21,306.39 7.27,27.41 49.81,15.77 42.55,-11.71l0 0z"/>
    <path class="fil1" d="M14055.33 8435.12c-145.27,-263.07 -570.27,-223.94 -617.78,90.27 -4.2,27.77 38.27,39.76 42.51,11.72 41.76,-276.02 409.11,-311.65 537.21,-79.73 13.68,24.83 51.78,2.61 38.06,-22.26l0 0z"/>
    <path class="fil1" d="M12870.46 8513.89c-40.5,-134.9 -81,-269.84 -121.47,-404.74 -8.15,-27.13 -50.69,-15.56 -42.54,11.71 40.5,134.94 81,269.84 121.5,404.78 8.11,27.09 50.69,15.52 42.51,-11.75l0 0z"/>
    <path class="fil1" d="M13198.22 8470.68c1.55,-138.25 3.11,-276.44 4.62,-414.69 0.36,-28.4 -43.74,-28.4 -44.09,0 -1.52,138.25 -3.07,276.44 -4.63,414.69 -0.31,28.4 43.78,28.4 44.1,0l0 0z"/>
    <path class="fil1" d="M12470.41 8169.37c308.61,-45.61 643.74,-49.81 944.8,-128.52 74.72,-19.54 74.79,-37.71 75.36,-112.46 0.88,-117.48 1.69,-247.44 -15.45,-363.72 -41.1,-278.55 -340.15,-183.47 -532.27,-158.15 -135.22,17.82 -271.15,32.92 -406.02,53.52 -87.49,13.37 -173.1,26.28 -218.58,114.87 -52.21,101.63 5.65,231.38 31.61,332.98 17.25,67.52 23,242.25 108.83,261.48 27.63,6.17 39.44,-36.3 11.72,-42.54 -58.28,-13.02 -87.67,-268.5 -101.57,-322.8 -10.34,-40.49 -33.23,-93.27 -29.63,-135.5 13.16,-153.77 116.52,-153.7 208.14,-165.77 220.31,-29.03 466.83,-97.79 688.76,-90.8 233.33,7.37 197.84,221.86 204.5,378.1 1.45,34.22 25.83,144.33 7.48,176.61 -22.93,40.32 -73.27,35.45 -120.51,41.76 -289.7,38.74 -579.75,75.67 -868.89,118.4 -27.97,4.16 -16.08,46.63 11.72,42.54z"/>
    <path class="fil1" d="M12785.61 8630.06c-4.23,-32.49 -8.46,-64.98 -12.7,-97.5 -7.34,7.37 -14.71,14.71 -22.05,22.04 175.3,-22.82 350.56,-45.64 525.85,-68.5 -7.37,-7.34 -14.71,-14.68 -22.04,-22.05 3.91,30.12 7.83,60.29 11.74,90.41 3.64,27.73 47.77,28.08 44.1,0 -3.92,-30.12 -7.83,-60.29 -11.75,-90.41 -1.41,-10.55 -9.06,-23.71 -22.05,-22.05 -175.29,22.86 -350.55,45.68 -525.85,68.51 -10.58,1.37 -23.74,9.06 -22.05,22.05 4.24,32.52 8.47,65.01 12.7,97.5 3.64,27.77 47.77,28.08 44.1,0l0 0z"/>
    <path class="fil1" d="M13698.5 9244.29c23.81,272.87 -136.67,530.33 -413.81,590.51 -301.8,65.51 -597.93,-146.69 -637.51,-450.81 -37.57,-288.89 167.22,-555.45 456.6,-593.09 298.1,-38.81 545.5,171.41 595.53,459.24 4.83,27.91 47.34,16.09 42.51,-11.71 -53.77,-309.25 -327.73,-534.85 -647.1,-492.48 -309.57,41.1 -533.12,335.25 -492.83,644.17 40.42,310.02 331.75,534.07 641.59,496.15 319.9,-39.12 526.31,-330.48 499.11,-641.98 -2.43,-28.05 -46.56,-28.33 -44.09,0z"/>
    <path class="fil1" d="M13542.18 9291.73c14.32,188.39 -89.64,362.13 -279.82,410.35 -209.52,53.13 -426.79,-99.73 -451.63,-312.27 -55.46,-473.96 644.98,-562.93 732.26,-92.18 5.15,27.83 47.66,16.05 42.51,-11.75 -40.96,-220.95 -235.2,-386.12 -466.48,-353.49 -222.71,31.44 -382.2,240.32 -353.9,463.55 28.25,222.75 238.86,384.46 461.04,357.23 231.49,-28.37 377.19,-236.72 360.12,-461.44 -2.12,-28.11 -46.25,-28.32 -44.1,0z"/>
    <path class="fil1" d="M12394.1 8988.42c4.27,56.3 -25.08,108.69 -82.69,122.87 -61.6,15.17 -125.2,-29.49 -132.51,-92.08 -16.51,-141.32 190.15,-164.18 215.98,-24.94 5.18,27.87 47.69,16.05 42.54,-11.71 -15.17,-81.77 -89.36,-141.18 -173.88,-128.31 -81.39,12.39 -139.21,89.26 -128.7,170.92 10.48,81.6 86.79,141.08 168.38,132.05 84.99,-9.42 141.29,-85.8 134.98,-168.8 -2.16,-28.12 -46.25,-28.33 -44.1,0z"/>
    <path class="fil1" d="M13800.1 8868.44c89.71,-19.51 184.43,-25.23 275.48,-37.22 12.17,-1.63 21.52,-8.82 22.05,-22.05 2.15,-56.13 4.3,-112.25 6.45,-168.42 0.39,-10.79 -10.51,-23.56 -22.04,-22.05 -112.01,14.72 -223.98,29.39 -335.96,44.07 -13.65,1.8 -25.75,12.7 -21.23,27.9 16.01,54.12 32.07,108.27 48.12,162.38 8.04,27.13 50.62,15.6 42.51,-11.74 -16.02,-54.08 -32.07,-108.24 -48.12,-162.35 -7.09,9.31 -14.18,18.63 -21.28,27.9 111.98,-14.67 223.95,-29.35 335.96,-44.06 -7.38,-7.34 -14.72,-14.67 -22.05,-22.05 -2.16,56.17 -4.31,112.29 -6.46,168.42 7.34,-7.34 14.68,-14.71 22.05,-22.05 -94.93,12.49 -193.64,18.45 -287.2,38.81 -27.73,6.03 -15.98,48.54 11.72,42.51z"/>
    <path class="fil1" d="M12446.59 7809.36c57.86,75.35 118.99,147.89 183.62,217.52 7.76,8.37 20.22,-4.16 12.49,-12.45 -63.6,-68.54 -123.93,-139.84 -180.9,-213.99 -6.81,-8.86 -22.16,-0.11 -15.21,8.92l0 0z"/>
    <path class="fil1" d="M12466.49 7717.15c76.52,103.39 155.33,205.07 236.4,304.94 7.16,8.82 19.57,-3.74 12.45,-12.49 -80.12,-98.71 -158.01,-199.14 -233.65,-301.34 -6.66,-9.04 -21.97,-0.25 -15.2,8.89l0 0z"/>
    <path class="fil1" d="M12516.97 7629.8c93.7,142.2 195.05,278.66 304.06,409.54 7.27,8.71 19.69,-3.81 12.49,-12.49 -108.06,-129.72 -208.46,-265.01 -301.31,-405.98 -6.24,-9.42 -21.52,-0.6 -15.24,8.93l0 0z"/>
    <path class="fil1" d="M12589.36 7560.44c106.79,141.92 218.05,280.21 333.91,414.8 7.4,8.64 19.86,-3.88 12.48,-12.46 -114.9,-133.45 -225.28,-270.51 -331.15,-411.23 -6.74,-8.99 -22.05,-0.21 -15.24,8.89l0 0z"/>
    <path class="fil1" d="M12696.71 7546.61c102.8,144.32 208.81,286.28 317.89,425.88 6.99,8.96 19.4,-3.6 12.49,-12.46 -108.2,-138.43 -213.22,-279.22 -315.17,-422.31 -6.53,-9.17 -21.8,-0.39 -15.21,8.89l0 0z"/>
    <path class="fil1" d="M12822.34 7539.17c81.91,111.3 160.76,224.75 236.57,340.36 6.17,9.45 21.48,0.6 15.2,-8.93 -75.77,-115.6 -154.62,-229.02 -236.53,-340.36 -6.67,-9.03 -21.98,-0.24 -15.24,8.93l0 0z"/>
    <path class="fil1" d="M12946.13 7551.09c102.05,141.93 209.3,279.79 321.8,413.56 7.3,8.72 19.76,-3.81 12.45,-12.45 -111.51,-132.64 -217.84,-269.31 -319.01,-410 -6.57,-9.13 -21.88,-0.35 -15.24,8.89l0 0z"/>
    <path class="fil1" d="M13057.64 7512.15c85.51,149.82 179.07,294.32 280.81,433.67 6.63,9.06 21.94,0.28 15.24,-8.89 -101.74,-139.35 -195.3,-283.85 -280.85,-433.71 -5.61,-9.84 -20.85,-0.99 -15.2,8.93l0 0z"/>
    <path class="fil1" d="M13195.12 7526.01c53.23,106.57 112.6,209.52 178.18,308.96 6.21,9.46 21.49,0.64 15.21,-8.89 -65.55,-99.48 -124.92,-202.42 -178.15,-308.99 -5.08,-10.13 -20.32,-1.2 -15.24,8.92l0 0z"/>
    <path class="fil1" d="M13143.89 7969.52c81.49,-101.42 153.07,-209.3 214.6,-323.95 5.36,-9.99 -9.84,-18.91 -15.24,-8.89 -60.82,113.31 -131.27,220.09 -211.81,320.35 -7.06,8.79 5.36,21.35 12.45,12.49l0 0z"/>
    <path class="fil1" d="M12928.49 8024.98c124.49,-156.99 259.04,-304.84 403.61,-443.55 8.18,-7.9 -4.27,-20.35 -12.49,-12.49 -144.57,138.75 -279.12,286.6 -403.61,443.59 -6.99,8.78 5.43,21.37 12.49,12.45l0 0z"/>
    <path class="fil1" d="M12815.28 7979.26c124.95,-154.59 249.94,-309.14 374.93,-463.73 7.06,-8.75 -5.36,-21.3 -12.49,-12.49 -124.98,154.59 -249.94,309.18 -374.93,463.73 -7.05,8.75 5.33,21.31 12.49,12.49l0 0z"/>
    <path class="fil1" d="M12522.83 8057.68c55.67,-106.47 152.08,-191.94 227.72,-284.76 64.7,-79.41 125.73,-161.57 184.22,-245.64 6.49,-9.31 -8.79,-18.17 -15.21,-8.89 -72.18,103.68 -148.45,204.33 -230.19,300.64 -63.39,74.61 -136.06,142.31 -181.75,229.76 -5.25,10.06 9.95,18.98 15.21,8.89l0 0z"/>
    <path class="fil1" d="M12448.74 7956.12c119.24,-145.98 241.62,-289.25 367.18,-429.79 7.54,-8.43 -4.91,-20.96 -12.49,-12.49 -125.56,140.58 -247.93,283.81 -367.14,429.79 -7.12,8.71 5.29,21.27 12.45,12.49l0 0z"/>
    <path class="fil1" d="M12455.94 7776.38c49.81,-53.24 99.59,-106.47 149.4,-159.71 7.73,-8.29 -4.69,-20.77 -12.49,-12.48 -49.77,53.27 -99.58,106.46 -149.4,159.73 -7.72,8.29 4.73,20.78 12.49,12.46l0 0z"/>
    <path class="fil1" d="M12785.58 8105.27c12.03,61.63 29.03,121.64 51.04,180.45 3.95,10.55 21.03,5.96 17.01,-4.69 -22.02,-58.81 -38.98,-118.82 -51.05,-180.45 -2.19,-11.15 -19.19,-6.42 -17,4.69l0 0z"/>
    <path class="fil1" d="M12824.59 8109.75c7.8,23.99 15.6,47.94 23.39,71.93 3.53,10.76 20.57,6.14 17.04,-4.69 -7.83,-23.95 -15.63,-47.94 -23.42,-71.89 -3.53,-10.76 -20.53,-6.18 -17.01,4.65l0 0z"/>
    <path class="fil1" d="M12871.55 8380.72c11.36,0 11.36,-17.64 0,-17.64 -11.33,0 -11.36,17.64 0,17.64l0 0z"/>
    <path class="fil1" d="M13124.31 8395.08c5.44,-107.21 10.83,-214.42 16.27,-321.66 0.56,-11.36 -17.08,-11.33 -17.64,0 -5.43,107.24 -10.83,214.45 -16.26,321.66 -0.57,11.36 17.07,11.32 17.63,0l0 0z"/>
    <path class="fil1" d="M13084.7 8263.99c-2.44,-69.68 1.73,-138.54 12.87,-207.33 1.84,-11.11 -15.17,-15.91 -17,-4.69 -11.4,70.31 -16.02,140.76 -13.51,212.02 0.35,11.29 18.03,11.36 17.64,0l0 0z"/>
    <path class="fil1" d="M13016.79 8090.38c0.81,18.35 1.62,36.69 2.4,55.04 0.49,11.29 18.13,11.36 17.63,0 -0.77,-18.35 -1.58,-36.69 -2.39,-55.04 -0.5,-11.32 -18.14,-11.36 -17.64,0l0 0z"/>
    <path class="fil1" d="M12128 8416.74c11.85,43.53 25.68,86.39 41.38,128.73 3.92,10.51 20.99,5.96 17,-4.69 -15.73,-42.3 -29.49,-85.2 -41.41,-128.77 -2.97,-10.93 -19.97,-6.28 -16.97,4.73l0 0z"/>
    <path class="fil1" d="M12160.88 8416.35c11,29.28 20.42,59.02 28.36,89.29 2.86,10.97 19.9,6.31 17.01,-4.69 -7.91,-30.27 -17.36,-60.01 -28.37,-89.29 -3.95,-10.51 -21.02,-5.96 -17,4.69l0 0z"/>
    <path class="fil1" d="M12207.37 8401.57c5.47,17 10.94,34.01 16.37,51.01 3.46,10.76 20.5,6.14 17.01,-4.73 -5.44,-16.96 -10.9,-33.97 -16.34,-50.94 -3.45,-10.79 -20.49,-6.17 -17.04,4.66l0 0z"/>
    <path class="fil1" d="M12200.57 8619.87c11.35,0 11.35,-17.64 0,-17.64 -11.33,0 -11.36,17.64 0,17.64l0 0z"/>
    <path class="fil1" d="M12298.28 8585.65c0,-1.38 0,-2.79 0,-4.2 0,-11.36 -17.63,-11.39 -17.63,0 0,1.41 0,2.82 0,4.2 0,11.36 17.63,11.36 17.63,0l0 0z"/>
    <path class="fil1" d="M12501.31 8577.18c0.25,-71.26 1.2,-142.52 2.79,-213.75 0.24,-11.36 -17.4,-11.36 -17.64,0 -1.59,71.23 -2.54,142.49 -2.79,213.75 -0.07,11.36 17.57,11.4 17.64,0l0 0z"/>
    <path class="fil1" d="M12448.36 8498.87c4.62,-45.79 7.69,-91.62 9.17,-137.62 0.39,-11.36 -17.25,-11.33 -17.64,0 -1.48,46 -4.55,91.83 -9.17,137.62 -1.17,11.28 16.51,11.18 17.64,0l0 0z"/>
    <path class="fil1" d="M12406.8 8420.62c1.41,-16.93 2.82,-33.87 4.23,-50.8 0.96,-11.32 -16.68,-11.25 -17.64,0 -1.41,16.93 -2.82,33.87 -4.23,50.8 -0.95,11.29 16.69,11.25 17.64,0l0 0z"/>
    <path class="fil1" d="M12222.51 9004.54c0.03,43.21 38.35,83.82 82.37,61.17 10.09,-5.19 1.17,-20.43 -8.89,-15.24 -32.07,16.47 -55.84,-16.97 -55.84,-45.93 0,-11.36 -17.64,-11.4 -17.64,0l0 0z"/>
    <path class="fil1" d="M12291.58 9017.8c11.36,0 11.36,-17.64 0,-17.64 -11.36,0 -11.36,17.64 0,17.64l0 0z"/>
    <path class="fil1" d="M12245.02 8975.5c11.35,0 11.39,-17.64 0,-17.64 -11.33,0 -11.36,17.64 0,17.64l0 0z"/>
    <path class="fil1" d="M12994.39 9288.35c75.81,89.81 152.43,178.96 229.8,267.47 7.47,8.58 19.93,-3.95 12.48,-12.45 -77.4,-88.51 -153.98,-177.66 -229.8,-267.51 -7.33,-8.68 -19.75,3.84 -12.48,12.49l0 0z"/>
    <path class="fil1" d="M13033.05 9089.8c101.81,145.1 213.68,281.91 335.7,410.46 7.84,8.26 20.32,-4.23 12.49,-12.49 -121,-127.42 -232.02,-263.03 -332.98,-406.86 -6.46,-9.2 -21.74,-0.42 -15.21,8.89l0 0z"/>
    <path class="fil1" d="M13256.29 9261.25c23.11,29.21 46.21,58.42 69.32,87.63 7.05,8.89 19.44,-3.67 12.49,-12.45 -23.11,-29.21 -46.22,-58.45 -69.32,-87.66 -7.06,-8.89 -19.44,3.66 -12.49,12.48l0 0z"/>
    <path class="fil1" d="M13060.36 9529.36c12.59,15.6 25.15,31.23 37.74,46.82 7.13,8.85 19.55,-3.71 12.49,-12.45 -12.59,-15.63 -25.19,-31.23 -37.78,-46.85 -7.13,-8.82 -19.51,3.74 -12.45,12.48l0 0z"/>
    <path class="fil1" d="M12968.92 9233.7c11.35,0 11.39,-17.64 0,-17.64 -11.33,0 -11.36,17.64 0,17.64l0 0z"/>
    <path class="fil1" d="M13301.23 9612.62c11.36,0 11.4,-17.64 0,-17.64 -11.32,0 -11.36,17.64 0,17.64l0 0z"/>
    <path class="fil1" d="M13212.33 9176.55c11.36,0 11.4,-17.64 0,-17.64 -11.32,0 -11.36,17.64 0,17.64l0 0z"/>
    <path class="fil1" d="M13381.7 9216.77c11.32,0 11.36,-17.64 0,-17.64 -11.36,0 -11.39,17.64 0,17.64l0 0z"/>
    <path class="fil1" d="M12728.43 9400.67c-4.31,-69.25 -7.06,-137.93 19.82,-203.45 4.31,-10.51 -12.77,-15.06 -17,-4.69 -27.38,66.78 -24.84,137.37 -20.46,208.14 0.7,11.29 18.34,11.36 17.64,0l0 0z"/>
    <path class="fil1" d="M12765.72 9146.92c11.35,0 11.35,-17.64 0,-17.64 -11.33,0 -11.36,17.64 0,17.64l0 0z"/>
    <path class="fil1" d="M13594.28 9540.34c34.58,-73.7 49.99,-151.56 45.51,-232.84 -0.63,-11.32 -18.27,-11.39 -17.64,0 4.34,78.18 -9.8,153 -43.07,223.95 -4.8,10.23 10.41,19.19 15.2,8.89l0 0z"/>
    <path class="fil1" d="M13631.43 9269.69c11.36,0 11.36,-17.64 0,-17.64 -11.36,0 -11.36,17.64 0,17.64l0 0z"/>
    <path class="fil1" d="M13835.83 8763.52c6.07,11.68 13.3,21.94 21.94,31.82 7.52,8.54 19.97,-3.99 12.49,-12.49 -7.69,-8.75 -13.83,-17.95 -19.22,-28.22 -5.26,-10.05 -20.46,-1.16 -15.21,8.89l0 0z"/>
    <path class="fil1" d="M13903.11 8751.03c1.41,2.82 2.82,5.65 4.23,8.47 5.11,10.16 20.32,1.23 15.24,-8.89 -1.41,-2.82 -2.82,-5.65 -4.23,-8.47 -5.08,-10.16 -20.29,-1.23 -15.24,8.89l0 0z"/>
    <path class="fil1" d="M13948.19 8729.65c0.67,7.02 1.34,14.11 2.05,21.17 1.09,11.18 18.73,11.29 17.64,0 -0.71,-7.06 -1.38,-14.15 -2.05,-21.17 -1.09,-11.22 -18.77,-11.32 -17.64,0l0 0z"/>
    <path class="fil1" d="M14005.76 8723.27c0,5.61 0,11.25 0,16.93 0,11.33 17.64,11.36 17.64,0 0,-5.68 0,-11.32 0,-16.93 0,-11.36 -17.64,-11.4 -17.64,0l0 0z"/>
    <path class="fil1" d="M13544.01 8507.37c13.13,-46.57 41.17,-85.94 81.21,-113.21 9.35,-6.31 0.53,-21.62 -8.89,-15.2 -43.88,29.88 -74.93,72.6 -89.32,123.75 -3.1,10.94 13.9,15.63 17,4.66l0 0z"/>
    <path class="fil1" d="M13692.82 8361.67c11.35,0 11.39,-17.64 0,-17.64 -11.33,0 -11.36,17.64 0,17.64l0 0z"/>
    <path class="fil1" d="M13863.95 8393.49c35.28,10.97 66.6,29.21 93.52,54.54 8.25,7.76 20.78,-4.69 12.49,-12.49 -29.11,-27.37 -63.18,-47.23 -101.36,-59.05 -10.86,-3.35 -15.52,13.65 -4.65,17l0 0z"/>
    <path class="fil1" d="M13811.35 8367.99c11.36,0 11.39,-17.64 0,-17.64 -11.36,0 -11.36,17.64 0,17.64l0 0z"/>
    <path class="fil1" d="M13849.2 8460.1c11.61,4.9 22.02,10.9 32.07,18.55 9.03,6.85 17.85,-8.47 8.89,-15.24 -10.05,-7.62 -20.43,-13.65 -32.07,-18.55 -10.33,-4.38 -19.33,10.83 -8.89,15.24l0 0z"/>
    <path class="fil1" d="M14176.86 9857.77c1.8,-139.7 3.6,-279.4 5.36,-419.1 0.15,-11.33 -17.49,-11.33 -17.63,0 -1.77,139.7 -3.57,279.4 -5.37,419.1 -0.14,11.36 17.5,11.36 17.64,0l0 0z"/>
    <path class="fil1" d="M14173.33 9417.89c11.33,0 11.36,-17.64 0,-17.64 -11.36,0 -11.39,17.64 0,17.64l0 0z"/>
    <path class="fil1" d="M14101.4 9887.4c2.86,-49.39 5.68,-98.78 8.54,-148.17 0.63,-11.32 -17,-11.29 -17.64,0 -2.86,49.39 -5.68,98.78 -8.54,148.17 -0.63,11.32 17.01,11.29 17.64,0l0 0z"/>
    <path class="fil1" d="M14059.39 9823.9c0,-23.95 0,-47.98 0,-71.97 0,-11.32 -17.64,-11.36 -17.64,0 0,23.99 0,48.02 0,71.97 0,11.36 17.64,11.39 17.64,0l0 0z"/>
    <path class="fil1" d="M14224.98 8824.87c8.26,-114.3 16.51,-228.6 24.77,-342.94 0.81,-11.32 -16.83,-11.29 -17.64,0 -8.26,114.34 -16.51,228.64 -24.77,342.94 -0.81,11.36 16.83,11.29 17.64,0l0 0z"/>
    <path class="fil1" d="M14181.48 8568.89c4.27,-21.16 8.54,-42.33 12.81,-63.46 2.22,-11.12 -14.78,-15.84 -17,-4.69 -4.27,21.16 -8.54,42.29 -12.81,63.46 -2.22,11.08 14.75,15.84 17,4.69l0 0z"/>
    <path class="fil1" d="M12377.13 10042.06c-46.78,-159 -102.41,-314.5 -166.97,-467.15 -4.41,-10.44 -19.61,-1.45 -15.24,8.89 63.92,151.23 118.89,305.43 165.21,462.95 3.17,10.86 20.21,6.24 17,-4.69l0 0z"/>
    <path class="fil1" d="M12444.19 10004.31c-20.49,-58.1 -40.99,-116.21 -61.49,-174.27 -3.77,-10.66 -20.81,-6.07 -17,4.65 20.5,58.11 40.99,116.17 61.49,174.28 3.77,10.65 20.81,6.06 17,-4.66l0 0z"/>
    <path class="fil1" d="M12547.24 10033.41c-8.36,-26.84 -16.69,-53.72 -25.05,-80.57 -3.35,-10.8 -20.39,-6.17 -17,4.69 8.36,26.85 16.69,53.69 25.01,80.58 3.39,10.79 20.39,6.17 17.04,-4.7l0 0z"/>
    <path class="fil1" d="M12352.97 9739.62c11.35,0 11.39,-17.64 0,-17.64 -11.33,0 -11.36,17.64 0,17.64l0 0z"/>
    <path class="fil1" d="M12179.43 9472.92c11.33,0 11.36,-17.64 0,-17.64 -11.36,0 -11.39,17.64 0,17.64l0 0z"/>
    <path class="fil1" d="M11967.8 8865.26c16.9,47.24 36.76,93.17 59.8,137.76 5.18,10.09 20.42,1.16 15.2,-8.92 -22.29,-43.26 -41.62,-87.67 -57.99,-133.53 -3.81,-10.62 -20.85,-6.03 -17.01,4.69l0 0z"/>
    <path class="fil1" d="M12031.44 8831.36c1.45,4.2 2.9,8.43 4.31,12.66 3.67,10.69 20.71,6.11 17.04,-4.69 -1.45,-4.23 -2.9,-8.47 -4.34,-12.66 -3.64,-10.69 -20.68,-6.11 -17.01,4.69l0 0z"/>
    <path class="fil1" d="M12534.72 9457.72c41.41,127.17 89.25,258.19 211.98,327.48 9.91,5.57 18.8,-9.63 8.93,-15.24 -118.71,-66.99 -163.9,-194.13 -203.91,-316.9 -3.49,-10.76 -20.53,-6.17 -17,4.66l0 0z"/>
    <path class="fil1" d="M12548.86 9658.87c16.34,27.69 36.3,52.56 59.83,74.47 8.33,7.73 20.82,-4.73 12.49,-12.49 -22.54,-20.92 -41.45,-44.41 -57.08,-70.91 -5.78,-9.77 -21.02,-0.88 -15.24,8.93l0 0z"/>
    <path class="fil1" d="M13789.26 9496.49c26.67,-79.73 35.18,-160.62 25.55,-244.2 -1.27,-11.14 -18.95,-11.29 -17.64,0 9.45,81.78 1.23,161.36 -24.91,239.5 -3.6,10.76 13.44,15.42 17,4.7l0 0z"/>
    <path class="fil1" d="M13881.59 9421.73c0,-25.4 0,-50.8 0,-76.2 0,-11.36 -17.64,-11.36 -17.64,0 0,25.4 0,50.8 0,76.2 0,11.36 17.64,11.4 17.64,0l0 0z"/>
    <path class="fil1" d="M13817.7 9172.35c11.36,0 11.39,-17.64 0,-17.64 -11.33,0 -11.36,17.64 0,17.64l0 0z"/>
    <path class="fil1" d="M13417.58 8739.88c9.91,4.1 19.86,8.22 29.77,12.32 10.48,4.33 15.07,-12.7 4.69,-17.01 -9.91,-4.13 -19.86,-8.22 -29.77,-12.35 -10.48,-4.3 -15.06,12.74 -4.69,17.04l0 0z"/>
    <path class="fil1" d="M14374.17 8171.17c-67.42,-9.31 -147.07,-18.52 -197.13,-69.99 -14.89,-15.31 -71.93,-87.24 -32.7,-101.53 8.11,-2.93 34.89,14.85 42.93,19.86 22.86,14.39 39.02,32.81 53.97,54.93 11.33,16.76 36.2,6.24 32.25,-13.58 -4.06,-20.43 -31.68,-105.59 -15.1,-121.22 34.08,-32.17 60.96,51.4 66.29,68.86 17.71,58.07 20.03,119.74 27.19,179.67 2.62,22.26 37.93,22.51 35.28,0 -10.4,-87.56 -5.22,-231.74 -89.5,-287.23 -26.07,-17.21 -49.42,-15.8 -66.25,12.35 -27.16,45.44 -1.2,110.28 8.08,156.92 10.72,-4.52 21.48,-9.04 32.24,-13.59 -28.71,-42.44 -72.07,-82.9 -124.56,-92.32 -35.88,-6.42 -60.22,12 -56.45,49.32 4.8,47.55 44.84,102.02 81.5,129.75 55.49,41.98 125.48,52.57 192.58,61.81 22.22,3.03 31.82,-30.94 9.38,-34.01l0 0z"/>
    <path class="fil1" d="M14545.06 8091.65c-33.17,-52.14 -50.1,-110.77 -44.14,-172.89 2.26,-23.89 16.44,-135.79 72.01,-80.36 24.51,24.44 15.94,81.52 11.74,111.12 -3.14,22.08 26.36,31.36 34.05,9.38 8.89,-25.54 20.67,-45.4 39.9,-64.06 11.85,-11.54 40.74,-29.39 57.64,-15.84 37.92,30.37 -29.42,90.28 -47.59,107.99 -43.39,42.22 -93.28,72.49 -147.74,98.35 -20.5,9.7 -2.65,40.15 17.78,30.44 54.96,-26.07 105.55,-56.83 149.68,-98.88 31.78,-30.27 80.75,-75.42 75.71,-124.49 -3.89,-37.58 -46.11,-61.53 -82.1,-53.59 -49.03,10.79 -82.33,67.7 -97.33,110.7 11.36,3.14 22.69,6.24 34.05,9.38 7.33,-51.64 10.47,-108.26 -24.63,-151.23 -19.75,-24.13 -49.14,-40.18 -77.86,-20.04 -40.67,28.5 -50.69,105.23 -51.64,150.25 -1.34,61.63 17.18,119.94 49.99,171.59 12.17,19.08 42.68,1.41 30.48,-17.82l0 0z"/>
    <path class="fil1" d="M14539.8 8458.9c-24.17,-41.95 -38.52,-86.65 -39.79,-135.26 -0.32,-11.89 -3.36,-62.33 6.49,-66.71 30.79,-13.65 28.04,47.38 28.36,62.37 0.39,19.09 31.01,24.98 34.64,4.69 4.45,-24.9 9.74,-56.48 37.33,-63.46 22.72,-5.79 17.57,5.54 14.25,26.21 -3.03,19.02 -10.97,36.72 -20.53,53.34 -24.73,43.04 -61.56,79.13 -91.23,118.82 -13.58,18.2 17,35.8 30.48,17.78 43.46,-58.14 157.23,-160.06 110.38,-243.95 -42.61,-76.45 -108.09,45.09 -114.68,81.92 11.53,1.55 23.07,3.1 34.64,4.65 -0.67,-32.84 -4.09,-82.9 -31.08,-105.94 -20.39,-17.39 -44.91,-8.32 -58.28,12.56 -20.04,31.4 -18.17,86.5 -14.61,121.67 4.7,46.22 20.08,89.05 43.15,129.09 11.36,19.68 41.84,1.94 30.48,-17.78l0 0z"/>
   </g>
  </g>
 </g>
</svg>
